<svg width="41" height="57" viewBox="0 0 41 57" fill="none" xmlns="http://www.w3.org/2000/svg">
<path d="M40.9645 54.4939C40.9286 54.4939 40.8928 54.4939 40.8928 54.4939C40.2112 56.1905 38.8123 56.5368 37.0546 56.5368C32.0686 56.4675 27.0827 56.5021 22.0967 56.5021C21.7021 56.5021 21.2717 56.5021 20.8771 56.4329C19.5499 56.1213 18.7607 55.1518 18.7607 53.7668C18.7607 46.3917 18.7607 38.982 18.7607 31.6069C18.7607 28.8022 18.7607 25.963 18.7607 23.1584C18.7607 19.4881 21.0923 16.7528 24.8228 16.0949C25.2891 16.0256 25.3968 15.8525 25.3968 15.4024C25.3609 10.9358 25.3968 6.50379 25.3968 2.03718C25.3968 1.6563 25.3609 1.27541 25.7913 1.06766C26.437 0.929162 27.1185 1.03305 27.7642 0.998428C29.7371 0.998428 31.7099 0.998428 33.6828 0.998428C34.185 0.998428 34.3644 1.31004 34.4002 1.72554C34.4361 2.00254 34.4361 2.24491 34.4361 2.52191C34.4361 6.60765 34.4361 10.728 34.4361 14.8138C34.4361 15.7486 34.4361 15.7486 35.3687 15.9564C38.346 16.6142 40.8569 19.2111 40.9286 21.9811C40.9286 22.085 40.9286 22.1542 41.0004 22.2235C41.0004 22.362 41.0004 22.5005 41.0004 22.639C40.8569 23.0199 40.9645 23.4354 40.9286 23.8162C40.9286 33.6843 40.9286 43.5524 40.9286 53.3859C40.9286 53.6629 40.8569 53.9053 41.0004 54.1823C40.9645 54.3208 40.9645 54.4247 40.9645 54.4939Z" fill="#004766"/>
<path d="M40.9636 54.2513C40.7483 54.1474 40.8201 53.9397 40.8201 53.7666C40.8201 43.8292 40.8201 33.8919 40.8201 23.9199C40.8201 23.8506 40.8201 23.7814 40.8559 23.7122C40.8918 23.6429 40.9277 23.6429 40.9636 23.7122C40.9636 33.9265 40.9636 44.0716 40.9636 54.2513Z" fill="#AFB5C4"/>
<path d="M33.7901 0.963628C33.7901 0.998553 33.7901 1.03347 33.7901 1.0684C31.1357 1.0684 28.4454 1.0684 25.791 1.0684C25.791 1.03347 25.791 0.998562 25.791 0.928711C28.4813 0.963636 31.1357 0.963628 33.7901 0.963628Z" fill="#DBDCE2"/>
<path d="M40.9639 23.7465H40.8921H40.8204C40.8563 23.4002 40.641 23.0193 40.928 22.6731C40.9639 23.054 40.9639 23.4002 40.9639 23.7465Z" fill="#BABFCB"/>
<path d="M14.3481 25.6856C14.3481 28.6287 14.3481 31.6065 14.3481 34.5496C14.3481 38.1852 12.0883 40.8514 8.35779 41.5092C7.81974 41.6131 7.67626 41.7516 7.67626 42.3056C7.71213 46.4606 7.71213 50.6502 7.67626 54.8398C7.67626 55.3592 7.78387 55.5323 8.35779 55.4977C9.685 55.4631 11.0122 55.4977 12.3753 55.4977C12.7698 55.4977 13.2003 55.4977 13.2362 56.0517C13.2362 56.6057 12.8057 56.5711 12.4111 56.5711C8.93172 56.5711 5.4523 56.5711 2.00874 56.5711C1.61417 56.5711 1.14785 56.5711 1.14785 56.0517C1.14785 55.4977 1.61417 55.4977 2.04461 55.4977C3.40768 55.4977 4.77076 55.4977 6.09796 55.4977C6.52841 55.4977 6.63602 55.3938 6.63602 54.9783C6.63602 50.6848 6.63602 46.4259 6.63602 42.1325C6.63602 41.717 6.49254 41.6477 6.09796 41.5785C2.18809 40.886 0 38.2545 0 34.4457C0 28.421 0 22.4309 0 16.4062C0 14.7788 0.825018 13.9478 2.51093 13.9478C5.63165 13.9478 8.7165 13.9478 11.8372 13.9478C13.5231 13.9478 14.3481 14.7442 14.3481 16.4062C14.3481 19.4532 14.3481 22.5694 14.3481 25.6856Z" fill="#004766"/>
<path d="M19.8718 38.2199C19.8718 33.2339 19.8718 28.2479 19.8718 23.2273C19.8718 19.7302 22.2034 17.3065 25.7904 17.0641C26.4002 17.0295 26.472 16.7178 26.472 16.2331C26.472 12.8398 26.472 9.44659 26.4361 6.05335C26.4361 5.46472 26.6154 5.32623 27.1894 5.32623C28.8753 5.36086 30.597 5.36086 32.283 5.32623C32.8927 5.32623 33.108 5.43009 33.0721 6.08796C33.0362 9.44658 33.0721 12.8052 33.0721 16.1292C33.0721 16.9602 33.1438 17.0295 34.0047 17.0641C37.1613 17.2026 39.6722 19.7648 39.7081 22.9157C39.744 29.806 39.7081 36.731 39.7081 43.6214C39.7081 46.98 39.7081 50.3386 39.7081 53.6626C39.7081 54.8398 39.1342 55.4285 37.9146 55.4285C32.4982 55.4285 27.0459 55.4285 21.6295 55.4285C20.4099 55.4285 19.8359 54.8052 19.8359 53.628C19.8718 48.5381 19.8718 43.379 19.8718 38.2199Z" fill="#84C553"/>
<path d="M29.8074 4.32177C28.8748 4.32177 27.978 4.32177 27.0454 4.32177C26.6508 4.32177 26.4714 4.25251 26.4714 3.83701C26.4356 2.20964 26.4356 2.20966 28.1215 2.20966C29.628 2.20966 31.0987 2.20966 32.6053 2.20966C32.964 2.20966 33.1075 2.2789 33.1433 2.65978C33.1792 4.32177 33.2151 4.32177 31.4574 4.32177C30.9194 4.32177 30.3454 4.32177 29.8074 4.32177Z" fill="#FBB122"/>
<path d="M7.20955 25.6162C9.03894 25.6162 10.9042 25.6162 12.7336 25.6162C13.164 25.6162 13.2716 25.7547 13.2716 26.1356C13.2716 29.0787 13.2716 32.0218 13.2716 34.9996C13.2358 37.8388 10.8683 40.2625 7.89109 40.5395C4.7345 40.8165 1.86487 38.8775 1.29094 36.0729C1.18333 35.6228 1.14746 35.2073 1.14746 34.7572C1.14746 31.9526 1.18333 29.1133 1.14746 26.3087C1.14746 25.7201 1.32681 25.6162 1.90074 25.6508C3.62252 25.6508 5.41603 25.6162 7.20955 25.6162Z" fill="#FFC844"/>
<path d="M7.17413 24.5429C5.34474 24.5429 3.55123 24.5429 1.72184 24.5429C1.25552 24.5429 1.07617 24.4737 1.07617 23.9889C1.11204 21.392 1.07617 18.7952 1.07617 16.1983C1.07617 15.3673 1.47075 14.9518 2.33163 14.9518C5.55997 14.9518 8.75243 14.9518 11.9808 14.9518C12.8058 14.9518 13.2004 15.3327 13.2004 16.129C13.2004 18.7605 13.2004 21.392 13.2004 24.0581C13.2004 24.439 13.0927 24.5429 12.6982 24.5429C10.9047 24.5429 9.03939 24.5429 7.17413 24.5429Z" fill="white"/>
<path d="M36.409 39.3277C36.409 41.2321 36.409 43.1364 36.409 45.0408C36.3731 48.1917 33.7546 50.9271 30.5621 51.1694C26.8316 51.4464 23.7826 49.265 23.2805 45.941C23.2446 45.6294 23.1729 45.2832 23.1729 44.937C23.1729 41.1628 23.1729 37.3887 23.1729 33.6146C23.1729 30.533 25.5762 27.8669 28.661 27.4514C32.1763 26.9666 35.2253 28.8017 36.1579 31.8833C36.3373 32.4027 36.409 32.9567 36.409 33.5107C36.409 35.4844 36.409 37.4233 36.409 39.3277Z" fill="#004766"/>
<path d="M11.5863 34.6532C11.5863 35.2418 11.1558 35.6919 10.5102 35.7266C9.86449 35.7612 9.3623 35.2764 9.3623 34.6532C9.3623 34.0992 9.86449 33.6145 10.4743 33.5798C11.0482 33.6145 11.5863 34.0992 11.5863 34.6532Z" fill="#FCB122"/>
<path d="M4.94987 37.8733C4.34008 37.8733 3.83789 37.3885 3.83789 36.8346C3.87376 36.2806 4.41182 35.7266 5.02161 35.7612C5.59554 35.7612 6.06185 36.2459 6.06185 36.8692C6.06185 37.4232 5.59554 37.8733 4.94987 37.8733Z" fill="#FCB122"/>
<path d="M6.0625 30.4292C6.0625 29.8406 6.49294 29.3905 7.10274 29.3559C7.74841 29.3212 8.25059 29.7714 8.25059 30.3946C8.25059 30.9486 7.74841 31.4334 7.17448 31.468C6.60056 31.468 6.09837 30.9832 6.0625 30.4292Z" fill="#FCB122"/>
<path d="M35.3322 39.293C35.3322 41.1628 35.3322 43.0325 35.3322 44.8676C35.3322 47.88 32.9289 50.1653 29.8082 50.1306C26.6875 50.1306 24.2842 47.8108 24.2842 44.833C24.2842 41.1282 24.2842 37.4233 24.2842 33.7184C24.2842 30.8792 26.3647 28.6978 29.3778 28.4208C32.068 28.1438 34.6866 30.0136 35.2246 32.6451C35.2964 33.0259 35.2964 33.4068 35.2964 33.753C35.3322 35.6228 35.3322 37.4579 35.3322 39.293Z" fill="#EEF2FA"/>
<path d="M29.7723 44.7986C29.2702 44.7986 28.768 44.7986 28.2658 44.7986C27.8712 44.7986 27.6201 44.6255 27.6201 44.2793C27.6201 43.933 27.9071 43.7253 28.2658 43.7253C29.306 43.7253 30.3104 43.7253 31.3506 43.7253C31.7093 43.7253 31.9963 43.8638 31.9963 44.2793C31.9963 44.6601 31.7452 44.7986 31.3506 44.7986C30.8485 44.7986 30.3104 44.7986 29.7723 44.7986Z" fill="#004867"/>
<path d="M29.8438 35.2076C29.3058 35.2076 28.8036 35.2076 28.2655 35.2076C27.871 35.2076 27.6199 35.0345 27.6557 34.6536C27.6557 34.342 27.9068 34.1342 28.2655 34.1342C29.3058 34.1342 30.3819 34.1342 31.4221 34.1342C31.745 34.1342 31.9961 34.3073 31.9961 34.6536C31.9961 35.0345 31.745 35.2076 31.3504 35.2076C30.8482 35.2076 30.346 35.2076 29.8438 35.2076Z" fill="#004867"/>
</svg>
