<svg width="28" height="38" viewBox="0 0 28 38" fill="none" xmlns="http://www.w3.org/2000/svg">
<path d="M1.66975 23.8322C2.0861 22.8924 2.60238 21.9996 3.18528 21.1538C3.8681 20.1513 4.56758 19.1802 5.40029 18.2873C5.50021 18.2717 5.55017 18.2247 5.55017 18.1307C6.2663 17.3318 7.16563 16.7836 8.18153 16.4077C8.29811 16.3607 8.41469 16.345 8.53127 16.298C8.68116 16.2824 8.8477 16.3294 8.94762 16.1884C9.18078 16.1101 9.41394 16.0474 9.66375 16.0474C9.76368 16.1414 9.73037 16.2667 9.74702 16.3764C9.93022 17.5511 10.23 18.7102 10.7962 19.7754C11.2792 20.6995 11.8954 21.5297 12.928 21.9996C14.1937 22.5792 15.4428 22.5008 16.6252 21.796C17.5412 21.2477 18.1907 20.4646 18.707 19.5717C19.2732 18.5849 19.6896 17.5355 19.8894 16.4233C19.9061 16.345 19.9227 16.251 19.9893 16.1884C20.0893 16.0944 20.1725 16.1884 20.2558 16.2197C21.0219 16.5017 21.738 16.8933 22.4042 17.3632C22.654 17.5355 22.9538 17.6608 23.1869 17.8644C23.1869 17.8957 23.2202 17.9114 23.2536 17.9114C23.6699 18.1463 23.9364 18.5223 24.1862 18.8825C24.3527 19.1332 24.5359 19.3681 24.6525 19.6344C24.5859 19.6814 24.5359 19.7284 24.6025 19.8067C24.5526 19.7284 24.5859 19.6814 24.6525 19.6344C24.7857 19.8067 24.8857 19.9947 24.9689 20.1983C25.0022 20.214 24.919 20.3079 25.0189 20.2923C25.0522 20.3393 25.0855 20.4019 25.1188 20.4489C25.0855 20.5272 25.1022 20.5742 25.1854 20.5899C25.5185 21.1538 25.8016 21.7333 26.0348 22.3285C26.0348 22.4382 26.0681 22.5478 26.168 22.6262C26.1847 22.6418 26.1847 22.6575 26.2013 22.6888C26.1847 22.7358 26.1847 22.7985 26.168 22.8611C26.1347 23.0177 26.1347 23.0177 26.3679 23.0961C26.651 23.6913 26.8842 24.3022 27.0674 24.9287C27.0507 25.0697 27.1007 25.1793 27.1839 25.2733C27.2006 25.3046 27.2173 25.3516 27.2173 25.383C27.2006 25.4143 27.134 25.4613 27.2339 25.4613C27.2839 25.5083 27.2839 25.5709 27.2839 25.6336C27.2006 25.7432 27.2173 25.7745 27.3338 25.8059C27.4171 25.9312 27.4338 26.0565 27.4504 26.1975C27.4671 26.4168 27.4004 26.6204 27.4338 26.8397C27.517 26.9493 27.4671 27.0746 27.4837 27.1843C27.4671 27.0746 27.5004 26.965 27.4671 26.8553C27.4338 26.8083 27.4338 26.7614 27.4338 26.7144C27.4171 26.5421 27.5004 26.589 27.6003 26.6517C27.7002 27.0433 27.8001 27.4192 27.8335 27.8265C27.8001 27.8735 27.8168 27.9205 27.8168 27.9675C27.8168 27.9831 27.8168 28.0144 27.8168 28.0301C27.8168 27.9988 27.8168 27.9831 27.8501 27.9675C27.9167 28.2337 27.95 28.5157 27.95 28.7976C27.8834 28.9699 27.95 29.1422 27.9667 29.3145C27.9833 29.5651 27.8834 29.8158 27.95 30.0664C27.9334 30.552 27.8168 31.0062 27.6336 31.4448C27.567 31.4918 27.5004 31.4604 27.4338 31.4291C26.5178 30.8652 25.5518 30.4266 24.486 30.1917C24.3361 29.9881 24.3361 29.7374 24.2695 29.5182C24.0863 28.9073 23.8698 28.3121 23.6366 27.7168C23.6033 27.6072 23.5533 27.5132 23.5367 27.4036C23.5367 27.3252 23.5866 27.2313 23.4534 27.1843C23.2203 26.6987 23.0037 26.2131 22.8372 25.6962C22.8372 25.5709 22.9538 25.4456 22.9038 25.3203C22.9038 25.3046 22.8872 25.289 22.8872 25.2733C22.8039 25.289 22.8206 25.4456 22.6873 25.3986C22.5374 25.2106 22.4542 24.9757 22.3376 24.7877C22.4208 25.0384 22.5041 25.3203 22.5374 25.6022C22.5707 25.8999 22.604 26.1975 22.604 26.4951C22.604 26.7927 22.5874 27.0903 22.5374 27.3879C22.4875 27.6855 22.3875 27.9675 22.2543 28.2337C22.2043 28.3434 22.171 28.453 22.0378 28.5157C21.9212 28.547 21.9212 28.453 21.8713 28.3904C21.9046 28.4687 21.9379 28.5313 21.9878 28.5627C21.9046 28.8133 21.7547 29.0013 21.5215 29.1422C21.1718 29.1892 20.9553 29.3772 20.8387 29.6905C20.7055 29.8628 20.5056 29.9254 20.3224 30.0037C20.0226 30.1447 20.006 30.1917 20.0393 30.505C20.056 30.6303 20.1226 30.7712 20.0393 30.8966C19.9394 30.9592 19.8561 30.8965 19.7562 30.8809C19.6063 30.8339 19.4564 30.7712 19.3065 30.7242C18.7902 30.5519 18.2906 30.6146 17.8243 30.8652C17.8076 30.8809 17.7743 30.8966 17.7577 30.8966C17.308 31.1472 17.0249 31.5388 16.7584 31.946C16.5919 32.1966 16.5752 32.1966 16.3754 32.0087C15.6759 31.3508 14.8932 30.8026 13.9772 30.411C13.844 30.3327 13.8273 30.2074 13.794 30.082C13.6941 29.6748 13.5775 29.2675 13.4276 28.8759C13.3943 28.782 13.361 28.688 13.311 28.6097C13.2777 28.5627 13.2444 28.5157 13.2111 28.4687C13.1778 28.3747 13.0945 28.3277 13.0612 28.2337C13.1944 27.5915 13.0445 26.9493 13.1278 26.2914C12.878 26.4951 13.0279 26.8397 12.7781 27.0746C12.5949 26.73 12.8114 26.3541 12.5616 26.0408C12.4283 26.2131 12.4783 26.3854 12.4617 26.5421C12.445 26.683 12.5283 26.918 12.3118 26.918C12.1619 26.918 12.1785 26.6987 12.1619 26.5577C12.1286 26.4011 12.1119 26.2601 12.0786 26.1035C12.062 26.0408 12.0453 25.9468 11.962 25.9625C11.8788 25.9782 11.8788 26.0721 11.8954 26.1348C11.8954 26.3071 11.9454 26.4637 11.962 26.636C11.962 26.6987 11.9953 26.7457 11.9953 26.8083C11.9953 26.8867 12.012 27.012 11.9121 27.0276C11.8121 27.0433 11.7788 26.9337 11.7455 26.8553C11.6789 26.73 11.6456 26.589 11.5956 26.4481C11.5623 26.3541 11.529 26.2601 11.4124 26.1975C11.3292 26.3228 11.3791 26.4324 11.4124 26.5421C11.4791 26.777 11.5956 26.9963 11.6789 27.2313C11.7289 27.3566 11.7788 27.4819 11.6456 27.5759C11.5124 27.6698 11.4124 27.5602 11.2959 27.5132C11.1959 27.4662 11.1127 27.4036 11.0127 27.3566C10.9628 27.3409 10.9128 27.3252 10.8795 27.3722C10.8295 27.4192 10.8795 27.4662 10.9128 27.4975C10.9628 27.5602 11.0294 27.5915 11.096 27.6385C11.4124 27.8735 11.6956 28.1554 11.9953 28.3904C11.9787 28.782 12.012 29.1579 12.1452 29.5338C12.1785 29.6121 12.1785 29.7061 12.1286 29.7688C12.012 29.8314 11.8954 29.7844 11.7955 29.7688C11.4124 29.6905 11.046 29.6121 10.663 29.5495C10.5964 29.5338 10.5298 29.5182 10.4632 29.4868C10.2133 29.2362 10.1134 28.9073 9.93022 28.6253C9.59713 28.1084 9.26405 27.5915 8.81439 27.1529C8.61454 26.965 8.38138 26.7927 8.13157 26.6517C7.93172 26.5421 7.79849 26.4011 7.73187 26.1975C7.49871 25.5396 7.03239 25.0227 6.46615 24.5998C6.36623 24.5215 6.2663 24.4588 6.24964 24.3178C6.28295 24.1142 6.39954 23.9576 6.46615 23.7696C6.49946 23.7069 6.54942 23.6443 6.54942 23.566C6.46615 23.566 6.38288 23.5346 6.2663 23.5033C6.2663 23.5033 6.28296 23.566 6.28296 23.5346C6.28296 23.519 6.29961 23.5346 6.29961 23.5346C6.43284 23.566 6.43284 23.6286 6.34957 23.7069C6.2663 23.7853 6.21634 23.8636 6.13307 23.9262C5.98318 23.9889 5.93322 24.1612 5.76667 24.1925C5.50021 24.1925 5.2504 24.0359 4.98393 24.0672C4.73412 24.0359 4.50096 24.0202 4.25114 24.0672C3.11866 24.1768 2.20268 24.6624 1.61979 25.6022C1.00358 26.6047 0.903658 27.6542 1.38663 28.7193C1.50321 28.9856 1.66975 29.2049 1.85294 29.4242C1.93621 29.5338 2.05279 29.6278 2.0861 29.7688C2.06945 29.8314 2.00283 29.8628 1.95287 29.8784C1.53652 30.0664 1.15347 30.317 0.820388 30.6146C0.770425 30.6616 0.703807 30.7243 0.620536 30.6929C0.520611 30.5676 0.437342 30.4423 0.404034 30.2857C0.420688 30.176 0.404032 30.082 0.287452 30.0351C-0.0289769 29.4712 -0.0456301 28.8916 0.054295 28.2807C0.270799 26.9493 0.737116 25.6962 1.30336 24.4745C1.43659 24.3805 1.56982 24.2865 1.53652 24.0985C1.53652 24.0672 1.56982 24.0359 1.60313 24.0359C1.65309 24.0359 1.6864 24.0672 1.6864 24.1142C1.66975 24.2082 1.70306 24.2865 1.75302 24.3492C1.71971 24.2238 1.71971 24.0202 1.66975 23.8322Z" fill="#F04E3E"/>
<path d="M7.58197 11.1133C7.54866 10.9097 7.66525 10.7061 7.63194 10.5024C7.6819 10.4241 7.64859 10.3301 7.64859 10.2518C7.63194 10.2205 7.59863 10.2675 7.64859 10.2518C7.66525 10.2518 7.66524 10.2518 7.66524 10.2675C7.66524 10.2988 7.66525 10.3301 7.63194 10.3615C7.53201 10.2362 7.63194 10.0325 7.44874 9.93855C7.43209 9.84457 7.53201 9.84457 7.58197 9.8289C7.91506 9.68793 8.03164 9.60961 8.28145 9.34332C7.99833 9.43731 7.76517 9.68793 7.41543 9.54696C7.36547 9.49997 7.31551 9.45297 7.2822 9.40598C7.16562 9.15536 7.01573 8.92041 6.8825 8.66979C6.71596 8.34085 6.61603 8.01192 6.58272 7.65165C6.56607 7.54201 6.58272 7.44802 6.6993 7.38537C7.08235 7.0721 7.51536 6.8998 8.03164 6.94679C8.11491 6.94679 8.21483 6.99378 8.23149 6.8998C8.24814 6.79015 8.13156 6.77449 8.04829 6.75882C7.83179 6.71183 7.61528 6.75882 7.41543 6.83714C7.19893 6.93112 6.99908 7.04077 6.84919 7.21307C6.79923 7.27573 6.74927 7.35405 6.64934 7.36971C6.49945 7.30705 6.53276 7.18175 6.54942 7.08777C6.666 6.25759 6.98242 5.49007 7.63194 4.89486C8.16487 4.40928 8.59788 3.87671 8.79773 3.18751C8.86435 2.96822 8.96427 2.95257 9.11416 3.12487C9.51386 3.57911 10.0468 3.82972 10.6297 4.01769C11.1959 4.20565 11.7788 4.29964 12.3617 4.39362C14.4268 4.70689 15.7425 5.85034 16.4586 7.66732C16.492 7.74564 16.5086 7.80829 16.5253 7.88661C16.5586 8.02758 16.6252 8.01192 16.7251 7.94927C17.1581 7.68298 17.5745 7.77696 17.741 8.24687C18.0075 9.03005 17.8409 9.76624 17.3413 10.4398C17.2247 10.5964 17.0415 10.6904 16.825 10.6747C16.6085 10.6591 16.5919 10.7531 16.6085 10.9254C16.6418 11.4109 16.6085 11.8808 16.4087 12.3194C16.3587 12.4447 16.3088 12.57 16.1922 12.664C16.0256 12.6953 16.009 12.805 16.0256 12.9303C16.0256 13.0243 16.0589 13.1339 15.9923 13.2279C15.959 13.2749 15.9091 13.4002 15.8258 13.2592C15.8091 13.3219 15.7259 13.3062 15.6926 13.3532C15.4261 13.6352 15.1763 13.9328 14.8765 14.1834C14.3103 14.669 13.7274 15.1389 12.9946 15.3895C12.8447 15.4365 12.7115 15.5305 12.5449 15.5775C12.2618 15.6714 11.962 15.6871 11.6622 15.6714C11.1127 15.7184 10.663 15.4835 10.2466 15.1859C9.59713 14.7316 9.13081 14.1364 8.68115 13.5099C8.26479 12.9146 7.91506 12.2881 7.63194 11.6146C7.58197 11.4266 7.64859 11.2543 7.58197 11.1133Z" fill="#FABE8F"/>
<path d="M0.653809 30.7399C1.08682 30.3796 1.53648 30.0193 2.08606 29.8314C2.18599 29.7844 2.25261 29.8627 2.31923 29.9097C3.13528 30.5832 4.06791 31.0531 5.15044 31.2254C5.28367 31.2411 5.4169 31.2724 5.53348 31.3507C5.83325 31.5387 6.06641 31.805 6.33288 32.0243C6.73258 32.3532 7.14893 32.6665 7.58194 32.9484C8.31472 33.4184 9.0142 33.9196 9.86356 34.1859C10.0967 34.2642 10.3299 34.2642 10.5464 34.2015C10.9128 34.0919 11.2792 34.0292 11.6622 34.0449C12.012 34.0606 12.2784 33.9353 12.4783 33.669C12.6115 33.4967 12.778 33.3557 12.9113 33.1834C13.0112 33.0738 13.1278 32.9798 13.261 32.9171C13.4276 32.8545 13.5774 32.8545 13.7107 32.9641C13.8439 33.0738 13.8439 33.2147 13.794 33.3557C13.6774 33.669 13.4442 33.9353 13.261 34.2015C13.1944 34.2955 13.0279 34.3895 13.0945 34.4991C13.1611 34.6088 13.3443 34.5305 13.4775 34.5305C14.2103 34.5148 14.7765 34.2015 15.2762 33.716C15.526 33.4653 15.8424 33.2617 16.1755 33.1207C16.342 33.0424 16.5252 32.9954 16.6751 33.1364C16.8417 33.293 16.7584 33.4497 16.6751 33.6063C16.4919 33.9353 16.1922 34.1545 15.9257 34.3895C15.8591 34.4365 15.7925 34.4835 15.7258 34.5305C15.7092 34.5461 15.7092 34.5461 15.6925 34.5618C15.7092 34.5618 15.7092 34.5461 15.7258 34.5305C15.7925 34.4835 15.8591 34.4208 15.9257 34.3895C16.1755 34.2172 16.342 33.9822 16.5919 33.7943C16.7084 33.7003 16.825 33.6063 16.9582 33.5437C17.1248 33.4653 17.308 33.4497 17.4579 33.5907C17.6078 33.7316 17.6078 33.8883 17.5245 34.0606C17.4079 34.2799 17.2747 34.4991 17.0415 34.6088C16.9749 34.6401 16.9249 34.6871 16.875 34.7341C16.7917 34.7811 16.7251 34.8281 16.6751 34.8751C16.6585 34.8907 16.6418 34.8907 16.6418 34.8907C16.6918 34.9064 16.6918 34.8751 16.7251 34.8594C16.775 34.8124 16.8417 34.7811 16.9083 34.7341C17.0582 34.6088 17.2247 34.5148 17.4079 34.4522C17.6411 34.3738 17.8076 34.4365 17.8576 34.6558C17.8909 34.8124 17.9575 34.8124 18.0907 34.7654C18.5737 34.5775 19.04 34.3268 19.5063 34.1232C19.6396 34.0606 19.7895 33.9979 19.9227 33.9353C20.6555 33.5437 21.3716 33.1677 22.0711 32.7292C22.171 32.6665 22.2709 32.6038 22.3542 32.5255C22.9871 32.1339 23.5699 31.6954 24.0862 31.1785C24.3027 30.9592 24.4859 30.6929 24.4693 30.3639C24.4693 30.3013 24.4859 30.2386 24.5359 30.2073C25.0855 30.2543 25.5851 30.4579 26.0847 30.6772C26.6343 30.8965 27.1339 31.2254 27.6502 31.4917C27.1339 32.6038 26.3679 33.5437 25.3853 34.3268C23.4367 35.8932 21.1218 36.7077 18.6237 37.115C17.0915 37.3656 15.5759 37.6945 14.0438 37.9608C13.3609 38.0705 12.7114 37.9295 12.0786 37.7885C11.3624 37.6162 10.7129 37.3186 10.13 36.8957C10.0468 36.833 9.93018 36.7704 9.88022 36.6764C9.66372 36.2848 9.26402 36.1908 8.88097 36.0342C7.08232 35.3293 5.30032 34.5775 3.65156 33.5593C2.53573 32.8701 1.50317 32.0713 0.78704 30.9905C0.737077 30.8808 0.703771 30.8182 0.653809 30.7399Z" fill="#F5BB91"/>
<path d="M16.1588 12.6327C16.5751 11.9905 16.6084 11.3013 16.5252 10.5494C16.7417 10.6277 16.9415 10.6277 17.1247 10.5338C17.3246 10.4241 17.4411 10.2362 17.5411 10.0482C17.7576 9.59394 17.8408 9.12403 17.7909 8.63846C17.7742 8.46616 17.7243 8.30953 17.641 8.15289C17.4411 7.80829 17.1247 7.74564 16.7916 7.9806C16.7083 8.02759 16.6417 8.1059 16.5418 8.18422C16.4419 7.72998 16.2753 7.32272 16.0422 6.93113C15.1762 5.44308 13.8438 4.59724 12.0452 4.40928C11.4123 4.34662 10.7961 4.17432 10.1966 3.93937C9.69694 3.73574 9.24728 3.48513 8.89754 2.98389C8.731 3.90804 8.1481 4.50326 7.5319 5.09848C6.91569 5.67804 6.66588 6.42989 6.59926 7.2444C6.59926 7.29139 6.58261 7.35404 6.64923 7.38537C6.68254 7.38537 6.69919 7.40104 6.71584 7.43237C6.63257 7.49502 6.61592 7.57334 6.63257 7.66732C6.68254 8.16856 6.89904 8.6228 7.14885 9.06138C7.21547 9.17103 7.3487 9.26501 7.26543 9.40598C5.23362 7.80829 4.65072 4.87919 5.9331 2.79592C6.49934 1.88743 7.31539 1.29221 8.43122 1.11991C8.5478 1.10425 8.64773 1.0416 8.74765 0.994605C9.66363 0.477705 10.6462 0.164436 11.7121 0.0391271C11.7954 0.0234635 11.8786 0.0391271 11.9619 0.0391271C12.2617 0.0704544 12.5781 0.0704544 12.8779 0.0391271C13.8438 0.0861181 14.7265 0.368058 15.5259 0.884958C17.6743 2.27902 18.8567 4.15866 18.7735 6.66485C18.7568 7.15042 18.6735 7.63599 18.507 8.1059C18.457 8.26254 18.4903 8.34085 18.6236 8.43484C19.5562 9.09271 20.0725 9.96988 20.2224 11.035C20.239 11.0977 20.2224 11.1603 20.2224 11.2073C20.1891 11.4579 20.1891 11.7085 20.2224 11.9748C20.0891 13.3689 19.6062 14.6063 18.4404 15.5461C18.3738 15.5931 18.3071 15.5775 18.2405 15.5461C17.6576 15.3425 17.0914 15.0919 16.7417 14.575C16.4086 14.1051 16.1255 13.6038 16.0089 13.0399C15.9756 12.8833 15.9922 12.7423 16.1588 12.6327Z" fill="#5A4344"/>
<path d="M16.1588 12.6327C15.9923 12.8207 16.0256 13.0243 16.1089 13.2436C16.2588 13.6039 16.4087 13.9485 16.6085 14.2774C17.0249 14.9666 17.6744 15.3269 18.4571 15.5461C18.9567 15.8124 19.4897 16.0004 20.0226 16.1884C19.956 16.8932 19.7395 17.5511 19.4897 18.1933C19.0234 19.3681 18.4072 20.4489 17.4246 21.3104C16.6751 21.9839 15.7924 22.4068 14.7432 22.4225C13.2777 22.4538 12.1785 21.8273 11.3458 20.7152C10.5464 19.6344 10.13 18.4126 9.86356 17.1438C9.78029 16.7679 9.69702 16.392 9.69702 16.0161C9.73033 15.9847 9.78029 15.9534 9.8136 15.9221C10.3465 15.7498 10.9128 15.7341 11.4457 15.6088C11.529 15.5931 11.6289 15.6245 11.6955 15.5305C12.6282 15.5461 13.3776 15.1076 14.1104 14.622C14.4601 14.387 14.7599 14.1208 15.0597 13.8545C15.2762 13.6665 15.4094 13.4002 15.6426 13.2436C15.7758 13.1653 15.7092 12.993 15.8757 12.9773C15.8591 13.0556 15.8591 13.1183 15.8424 13.1653C15.8591 13.2123 15.8757 13.2123 15.8924 13.1966C16.0423 13.0713 15.9257 12.9303 15.959 12.7893C15.9756 12.7267 15.9423 12.5857 16.1588 12.6327Z" fill="#F5BB91"/>
<path d="M11.679 15.5775C11.7123 15.6088 11.6956 15.6401 11.6623 15.6558C11.0461 15.7968 10.4299 15.9064 9.79706 15.9534C8.1816 14.9352 7.49878 13.4629 7.51543 11.6616C7.5654 11.5362 7.51544 11.4109 7.54874 11.2856C7.54874 11.223 7.54875 11.1603 7.5654 11.0977C7.64867 11.2856 7.68198 11.5049 7.76525 11.6929C8.34814 12.9773 9.08093 14.1677 10.2467 15.0606C10.6631 15.4052 11.1294 15.6245 11.679 15.5775Z" fill="#5A4344"/>
<path d="M7.39867 9.53137C7.78172 9.54703 8.08149 9.32774 8.41457 9.18677C8.19807 9.57836 7.86499 9.81332 7.43198 9.92296C7.3154 9.93862 7.18217 9.93863 7.01562 9.95429C7.16551 9.79765 7.11555 9.53137 7.39867 9.53137Z" fill="#34333A"/>
<path d="M1.66975 23.8322C1.8696 24.0358 1.73637 24.3178 1.81965 24.5527C1.76968 24.4118 1.63645 24.3021 1.68641 24.0828C1.51987 24.2708 1.71972 24.4274 1.63645 24.5684C1.61979 24.5684 1.33667 24.5371 1.33667 24.5371C1.43659 24.2865 1.53652 24.0515 1.66975 23.8322Z" fill="#F0503B"/>
<path d="M27.9501 30.082C27.8669 29.6591 27.8669 29.2362 27.9501 28.8133C28.0168 29.2362 28.0168 29.6591 27.9501 30.082Z" fill="#EF4230"/>
<path d="M26.4013 23.1117C26.4013 23.1431 26.4013 23.1901 26.3846 23.2057C26.3347 23.2527 26.3013 23.2057 26.3013 23.1744C26.2514 23.0021 26.2014 23.1431 26.1515 23.1744C26.1181 23.0021 26.0848 22.8455 26.2347 22.7202C26.3013 22.8455 26.368 22.9708 26.4013 23.1117Z" fill="#F0503A"/>
<path d="M27.6168 26.683C27.417 26.6517 27.4836 26.7926 27.4836 26.8866C27.4003 26.6673 27.3837 26.4481 27.5003 26.2288C27.5502 26.3697 27.5835 26.5264 27.6168 26.683Z" fill="#F0533B"/>
<path d="M12.8779 0.0234955C12.5781 0.101814 12.2617 0.101814 11.9619 0.0234955C12.2617 -0.00783182 12.5615 -0.00783182 12.8779 0.0234955Z" fill="#4B3939"/>
<path d="M20.2226 11.9749C20.1393 11.7243 20.1393 11.4737 20.2226 11.2074C20.2559 11.4737 20.2559 11.7243 20.2226 11.9749Z" fill="#4A3739"/>
<path d="M0.320801 30.0821C0.337455 30.0507 0.337453 29.9881 0.370761 29.9724C0.437378 29.9411 0.437376 30.0194 0.420722 30.0351C0.370759 30.1291 0.587263 30.223 0.420722 30.317C0.387413 30.27 0.337455 30.176 0.320801 30.0821Z" fill="#F04C37"/>
<path d="M8.96421 16.1884C9.01417 16.2197 9.01417 16.2667 8.96421 16.2823C8.83097 16.3137 8.69774 16.392 8.54785 16.3137C8.68108 16.2667 8.81432 16.2197 8.96421 16.1884Z" fill="#F04D34"/>
<path d="M27.2173 25.289C27.0674 25.2107 27.0008 25.101 27.1007 24.9444C27.1507 25.054 27.2007 25.1794 27.2173 25.289Z" fill="#F04E3B"/>
<path d="M27.367 25.8216C27.367 25.8529 27.3504 25.9155 27.3504 25.9155C27.2338 25.8999 27.2172 25.8059 27.2005 25.7276C27.1672 25.6179 27.2671 25.6806 27.3171 25.6649C27.3337 25.7119 27.3004 25.7902 27.367 25.8216Z" fill="#F04E3B"/>
<path d="M26.2013 22.6575C26.0181 22.6105 26.0014 22.5008 26.068 22.3599C26.1013 22.4538 26.1513 22.5478 26.2013 22.6575Z" fill="#F04B36"/>
<path d="M25.0521 20.3079C25.0521 20.4019 24.9855 20.4332 24.9023 20.4332C24.8856 20.3236 24.9855 20.2922 25.0022 20.2139C25.0022 20.2453 25.0188 20.2766 25.0521 20.3079Z" fill="#F0533B"/>
<path d="M5.56688 18.1307C5.65015 18.1777 5.61685 18.2247 5.56688 18.2716C5.51692 18.3186 5.46695 18.3656 5.41699 18.2873C5.43365 18.209 5.50027 18.1777 5.56688 18.1307Z" fill="#EE5134"/>
<path d="M25.202 20.6212C25.1521 20.6995 25.1021 20.6682 25.0688 20.6212C25.0188 20.5585 25.0355 20.4959 25.1354 20.4802C25.1521 20.5272 25.1854 20.5742 25.202 20.6212Z" fill="#F0533B"/>
<path d="M7.5653 11.2857C7.5653 11.411 7.61526 11.552 7.53198 11.6616C7.51533 11.5363 7.49868 11.411 7.5653 11.2857Z" fill="#614E4C"/>
<path d="M7.61523 10.3615C7.61523 10.3302 7.63189 10.2832 7.64854 10.1735C7.68185 10.3302 7.71516 10.4241 7.63189 10.5025C7.63189 10.4555 7.63189 10.4085 7.61523 10.3615Z" fill="#F9B67E"/>
<path d="M23.2536 17.927C23.2203 17.974 23.1704 18.0053 23.1204 17.9583C23.0871 17.9113 23.1537 17.8957 23.187 17.8957C23.2203 17.8957 23.237 17.9114 23.2536 17.927Z" fill="#F05132"/>
<path d="M27.2672 25.4926C27.2672 25.524 27.2505 25.5553 27.2339 25.5553C27.1839 25.5709 27.1839 25.5239 27.1673 25.5083C27.134 25.4456 27.1839 25.4143 27.2339 25.4143C27.2505 25.43 27.2672 25.4613 27.2672 25.4926Z" fill="#F04E3B"/>
<path d="M27.8668 27.9832C27.8502 27.9988 27.8502 28.0302 27.8335 28.0458C27.8168 28.0458 27.8002 28.0302 27.8002 28.0302C27.8002 27.9675 27.7835 27.9048 27.8502 27.8578C27.8502 27.8892 27.8502 27.9362 27.8668 27.9832Z" fill="#EF452E"/>
<path d="M5.53349 31.3978C5.33364 31.3038 5.11714 31.2725 4.90064 31.2255C3.95135 31.0375 3.1353 30.6146 2.40251 30.0351C2.30259 29.9567 2.20266 29.8941 2.10273 29.8158C1.81961 29.4398 1.50319 29.0796 1.31999 28.641C0.620515 26.9807 1.41991 24.4745 4.10123 24.0359C4.16785 24.0202 4.23447 24.0359 4.28443 24.0359C4.53424 24.0516 4.78406 24.0516 5.03387 24.0359C5.31699 24.0202 5.5668 24.1455 5.83327 24.1925C5.88323 24.2082 5.91654 24.1925 5.94985 24.1769C5.99981 24.1612 6.03312 24.1612 6.08308 24.1925C6.13304 24.2708 6.23297 24.3022 6.31624 24.3335C6.29959 24.4431 6.39951 24.4745 6.46613 24.5215C7.06568 24.96 7.5653 25.4769 7.79846 26.1661C7.86508 26.3541 7.99831 26.4951 8.18151 26.6047C8.43132 26.7457 8.68113 26.9023 8.86433 27.1216C9.31399 27.6229 9.44722 28.2181 9.33064 28.8446C9.31399 28.9856 9.38061 29.0326 9.46388 29.1109C9.44723 29.2519 9.09749 29.1579 9.26403 29.3929C9.08083 29.5495 8.86433 29.7061 8.71444 29.9098C8.46463 30.0821 8.28143 30.27 8.18151 30.599C8.04827 31.0532 7.61527 31.2412 7.1323 31.3038C6.99906 31.3195 6.86583 31.3038 6.7326 31.3195C6.3329 31.4135 5.9332 31.3508 5.53349 31.3978Z" fill="#FCC7A3"/>
<path d="M6.76589 31.2568C7.16559 31.3038 7.53198 31.2098 7.84841 30.9592C8.04826 30.8026 8.19815 30.6146 8.18149 30.364C8.16484 30.2387 8.24811 30.1917 8.33138 30.1291C8.44796 30.0507 8.58119 29.9568 8.69777 29.8784C8.83101 29.8628 8.83101 29.9568 8.81435 30.0194C8.69778 30.7243 9.1974 31.0532 9.76364 31.3038C10.5464 31.6641 11.3791 31.8521 12.2451 31.946C12.6115 31.993 12.9612 32.0087 13.311 31.9304C13.744 31.8364 13.8772 31.6954 13.9272 31.2882C13.9605 31.0532 13.9938 30.8183 13.9272 30.5833C13.9105 30.505 13.8939 30.3797 14.0438 30.3797C14.9931 30.7399 15.7758 31.3195 16.4753 32.0087C16.5086 32.04 16.5419 32.0714 16.5752 32.1183C16.9083 31.6328 17.1914 31.1159 17.7576 30.8496C17.791 30.8809 17.8076 30.9279 17.8076 30.9592C17.8243 30.9906 17.8409 31.0219 17.8742 30.9592C17.8243 30.9279 17.791 30.8809 17.7576 30.8496C18.3239 30.458 18.9401 30.5207 19.5563 30.7399C19.7228 30.7869 19.8727 30.8496 20.0226 30.9122C20.0892 30.8966 20.1392 30.9279 20.2058 30.9436C20.9552 31.3195 21.6547 31.7581 22.2376 32.369C22.2876 32.4159 22.3375 32.4629 22.3209 32.5413C21.9212 32.8702 21.4382 33.1208 20.9886 33.3714C20.6222 33.5751 20.2558 33.7944 19.8561 33.951C19.6729 33.904 19.523 33.9197 19.5063 34.139C18.9401 34.4052 18.3572 34.6872 17.7743 34.9221C17.691 34.8595 17.7576 34.8125 17.7576 34.7498C17.7576 34.4836 17.6244 34.3896 17.3579 34.4992C17.1747 34.5775 17.0082 34.6715 16.8417 34.7655C16.825 34.7812 16.8084 34.7812 16.8084 34.7812C16.7917 34.7655 16.7917 34.7498 16.8084 34.7342C17.0582 34.5619 17.2747 34.3739 17.4246 34.1076C17.5245 33.9353 17.5745 33.763 17.3913 33.622C17.2247 33.4811 17.0415 33.5594 16.8916 33.6534C16.6252 33.8257 16.392 34.045 16.1422 34.2329C16.0589 34.3113 15.9923 34.4052 15.8591 34.4209C16.0589 34.2016 16.2754 33.998 16.4586 33.763C16.5919 33.5907 16.8084 33.3871 16.6085 33.1835C16.4087 32.9798 16.1755 33.1678 15.9756 33.2775C15.5593 33.5124 15.2096 33.8413 14.8432 34.139C14.3102 34.5775 13.6441 34.6089 12.9779 34.6089C12.8114 34.6089 12.9113 34.4992 12.9446 34.4522C13.1278 34.2016 13.311 33.9666 13.4942 33.7317C13.5774 33.6064 13.6441 33.4811 13.694 33.3401C13.744 33.2148 13.7606 33.0895 13.6274 32.9955C13.4942 32.9015 13.3609 32.9172 13.2277 32.9955C13.0945 33.0738 12.9946 33.1678 12.8946 33.2775C12.7614 33.4184 12.6282 33.5594 12.5116 33.7004C12.2618 33.998 11.9453 34.1546 11.529 34.1233C11.1959 34.092 10.8628 34.1546 10.5464 34.2643C10.2633 34.3582 9.9968 34.3426 9.73033 34.2486C8.91428 33.951 8.1815 33.4967 7.48202 32.9955C7.09897 32.5256 6.88247 31.9774 6.68262 31.4135C6.71593 31.3508 6.71593 31.3038 6.76589 31.2568Z" fill="#447B87"/>
<path d="M14.0605 30.3797C13.9439 30.4267 13.9772 30.505 14.0105 30.5676C14.1271 30.8653 14.0271 31.1472 13.9938 31.4448C13.9605 31.7424 13.6774 31.9617 13.311 32.0087C12.4117 32.134 11.5457 31.9461 10.6963 31.6954C10.3799 31.6015 10.0634 31.5231 9.76367 31.3822C9.31401 31.1472 8.8477 30.9279 8.73112 30.3797C8.71446 30.27 8.69781 30.1761 8.73112 30.0821C8.76443 30.0038 8.78108 29.9254 8.68115 29.8628C8.84769 29.6748 8.96427 29.4555 9.24739 29.3929C9.33066 29.2832 9.4639 29.2832 9.58048 29.2832C9.89691 29.2832 10.1967 29.2676 10.4798 29.4555C10.5464 29.4712 10.5964 29.4869 10.663 29.5025C11.2126 29.6748 11.7289 29.8628 12.2285 30.1761C12.2118 30.0351 12.0786 29.9098 12.1619 29.7531C12.0453 29.3146 11.8788 28.8603 11.9787 28.3904C11.9787 28.3434 11.9953 28.3121 12.0286 28.2808C12.2285 28.0771 12.8947 28.0458 13.1611 28.2181C13.2444 28.2494 13.3277 28.2964 13.311 28.4217C13.3443 28.5784 13.4609 28.7507 13.1944 28.829C13.1778 28.829 13.1611 28.8603 13.1611 28.8916C13.1778 28.876 13.1944 28.8446 13.2111 28.8446C13.2777 28.8446 13.2944 28.9073 13.3277 28.9386C13.3776 28.9073 13.3443 28.8603 13.361 28.829C13.361 28.8133 13.3776 28.782 13.3943 28.7663C13.4276 28.7507 13.4609 28.7507 13.4942 28.782C13.6774 29.1736 13.7773 29.5965 13.8773 30.0038C13.9272 30.1604 13.9106 30.317 14.0605 30.3797Z" fill="#3D6D77"/>
<path d="M13.1612 28.2493C12.7615 28.1867 12.3452 28.124 11.9954 28.4216C11.5624 28.171 11.2626 27.7794 10.8296 27.5131C10.763 27.4661 10.7297 27.4035 10.7797 27.3408C10.8296 27.2625 10.9129 27.2468 10.9962 27.2782C11.1627 27.3408 11.296 27.4348 11.4292 27.5288C11.4791 27.5601 11.5458 27.6228 11.629 27.5758C11.7123 27.5288 11.6956 27.4348 11.6623 27.3722C11.5791 27.1529 11.4791 26.9492 11.4125 26.7299C11.3626 26.589 11.3293 26.448 11.296 26.307C11.2793 26.2131 11.2793 26.1347 11.3959 26.1034C11.4958 26.0721 11.5458 26.1504 11.5791 26.2287C11.679 26.4323 11.7623 26.6516 11.8455 26.8709C11.8622 26.9179 11.8622 26.9806 11.9621 27.0276C11.9954 26.8083 11.9122 26.589 11.8955 26.3854C11.8955 26.307 11.8622 26.213 11.8788 26.1347C11.8788 26.0251 11.8455 25.8841 11.9954 25.8684C12.1287 25.8528 12.1786 25.9938 12.1953 26.1034C12.2619 26.3853 12.3119 26.6673 12.3618 26.9962C12.4617 26.8866 12.4451 26.7769 12.4451 26.683C12.4617 26.495 12.4284 26.307 12.495 26.1347C12.5117 26.0721 12.5284 25.9938 12.6116 25.9781C12.7116 25.9624 12.7449 26.0564 12.7782 26.1191C12.8448 26.3227 12.8281 26.5263 12.8281 26.7299C12.8281 26.8396 12.8281 26.9492 12.8448 27.0589C12.978 26.8553 12.9281 26.6046 13.0113 26.3854C13.0446 26.307 13.0446 26.1974 13.1612 26.1974C13.2778 26.1974 13.3111 26.307 13.2945 26.3854C13.1612 26.9649 13.3777 27.6228 13.1612 28.2493Z" fill="#FCC7A3"/>
<path d="M10.4797 29.4711C10.0634 29.4242 9.66366 29.2989 9.2473 29.4085C9.21399 29.3615 9.08076 29.3928 9.11407 29.2675C9.16403 29.0796 9.34723 29.2362 9.41384 29.1422C9.34723 29.0952 9.18069 29.1579 9.23065 28.9542C9.39719 28.3904 9.26396 27.8578 8.98084 27.3566C8.93088 27.2782 8.88091 27.2156 8.86426 27.1373C9.33057 27.5289 9.647 28.0301 9.96343 28.547C10.1466 28.8446 10.3132 29.1579 10.4797 29.4711Z" fill="#F5BB91"/>
<path d="M11.1626 26.448C10.7129 26.354 10.7129 25.9781 10.5797 25.7275C10.2633 25.1166 9.89687 24.5527 9.38059 24.0828C8.96423 23.6912 8.48126 23.3936 7.91502 23.2213C7.86506 23.2057 7.81509 23.19 7.76513 23.1743C7.71517 23.1587 7.64855 23.143 7.66521 23.0803C7.68186 23.002 7.74848 23.049 7.79844 23.049C8.09822 23.1117 8.38134 23.2213 8.63115 23.3623C9.19739 23.6599 9.66371 24.0672 10.0301 24.5527C10.3299 24.96 10.6297 25.3672 10.7962 25.8371C10.8628 26.0408 11.046 26.2131 11.1626 26.448Z" fill="#EB4539"/>
<path d="M10.0468 26.1975C10.0302 26.2131 10.0302 26.2445 10.0135 26.2601C9.96357 26.2758 9.93026 26.2601 9.91361 26.2131C9.63049 25.7119 9.31406 25.2263 8.88105 24.8191C8.54797 24.5058 8.18158 24.2552 7.78188 24.0516C7.73191 24.0202 7.6653 24.0046 7.61534 23.9732C7.56537 23.9419 7.44879 23.9106 7.51541 23.8323C7.58203 23.7383 7.63199 23.8479 7.68195 23.8636C8.13161 23.9889 8.48135 24.3022 8.83109 24.5685C9.14752 24.8034 9.39733 25.1167 9.61384 25.4613C9.73042 25.6493 9.86365 25.8372 9.98023 26.0252C9.99688 26.0565 10.0135 26.1348 10.0468 26.1975Z" fill="#EB4539"/>
<path d="M12.162 29.7687C12.1953 29.941 12.2619 30.0977 12.3785 30.2856C12.1453 30.2543 12.0121 30.1133 11.8455 30.035C11.4625 29.8471 11.0794 29.7061 10.6797 29.5808L10.6631 29.5651C10.6631 29.5495 10.6797 29.5338 10.6797 29.5181C11.1127 29.5495 11.5291 29.6591 11.9455 29.7531C12.0121 29.7687 12.0787 29.8001 12.162 29.7687Z" fill="#467A85"/>
<path d="M8.96437 26.3541C8.53137 25.5553 7.89851 25.0071 6.94922 24.8034C7.84854 24.7408 9.01434 25.7119 8.96437 26.3541Z" fill="#EA443A"/>
<path d="M17.7745 30.0507C18.3241 30.2074 18.8903 30.2387 19.4565 30.2387C19.5731 30.2387 19.6564 30.2543 19.7397 30.1604C19.7896 30.1134 19.9062 30.129 19.9229 30.176C19.9728 30.2543 19.8895 30.27 19.8229 30.2857C19.1401 30.364 18.4739 30.3953 17.8078 30.1604C17.7911 30.1447 17.7578 30.129 17.7578 30.1134C17.7578 30.1134 17.7745 30.082 17.7745 30.0507Z" fill="#EA4439"/>
<path d="M21.5381 29.1266C21.3549 29.3302 21.1551 29.5025 20.9053 29.6278C20.9219 29.4555 21.0718 29.2519 21.2217 29.2049C21.305 29.1736 21.4049 29.0953 21.5381 29.1266Z" fill="#F04E3C"/>
<path d="M6.4828 23.7226C6.38287 23.8323 6.26629 23.9419 6.16636 24.0516C6.14971 24.0359 6.13306 24.0202 6.13306 23.9889C6.13306 23.9576 6.14971 23.9419 6.16636 23.9263C6.19967 23.7853 6.34956 23.7383 6.41617 23.6286C6.2996 23.5503 6.28294 23.707 6.16636 23.6756C6.24963 23.566 6.26629 23.425 6.44948 23.5503C6.53276 23.613 6.61602 23.2997 6.66599 23.566C6.61602 23.6287 6.56607 23.6913 6.4828 23.7226Z" fill="#F0503A"/>
<path d="M22.3709 26.965C22.3043 26.5264 22.4042 26.0722 22.271 25.6336C22.4542 26.0722 22.3709 26.5264 22.3709 26.965Z" fill="#F04F38"/>
<path d="M13.361 29.0639C13.3276 29.0639 13.2943 29.0483 13.2943 29.0483C13.261 28.876 13.1944 28.923 13.0945 29.0639C13.0945 28.7976 13.3943 28.6723 13.311 28.4374C13.361 28.4687 13.3943 28.5 13.4109 28.5627C13.3943 28.641 13.4942 28.735 13.4109 28.8133C13.3443 28.8916 13.4442 29.0013 13.361 29.0639Z" fill="#426C7B"/>
<path d="M22.8871 25.6649C22.8538 25.5865 22.8038 25.4926 22.7705 25.4142C22.8038 25.3516 22.8205 25.2733 22.8538 25.2106C22.8704 25.195 22.8704 25.1323 22.9204 25.1636C22.937 25.1793 22.937 25.2263 22.937 25.2576C22.9037 25.2889 22.9037 25.3359 22.9037 25.3673C22.9037 25.3203 22.9037 25.2889 22.937 25.2576C23.0869 25.4142 22.9704 25.5239 22.8871 25.6649Z" fill="#F05137"/>
<path d="M5.03386 24.0359C4.78405 24.1142 4.53424 24.0985 4.28442 24.0359C4.53424 23.9889 4.78405 23.9889 5.03386 24.0359Z" fill="#F9D1A1"/>
<path d="M27.5171 26.9337C27.5337 27.059 27.5504 27.2313 27.5671 27.4036C27.5504 27.4036 27.5337 27.4036 27.5171 27.4192C27.5171 27.2313 27.5171 27.059 27.5171 26.9337Z" fill="#F0533B"/>
<path d="M6.16634 23.9262C6.16634 23.9419 6.16634 23.9575 6.16634 23.9732C6.09972 24.0672 5.9998 24.1298 5.94983 24.2238C5.91652 24.2081 5.86656 24.1925 5.83325 24.1768C5.94983 24.1142 5.98314 23.9419 6.16634 23.9262Z" fill="#F0523E"/>
<path d="M22.0211 28.5313C22.0211 28.547 22.0211 28.5626 22.0044 28.5626C21.8379 28.5157 21.9045 28.3747 21.8379 28.2807C21.9545 28.3277 21.9711 28.4373 22.0211 28.5313Z" fill="#F04E36"/>
<path d="M24.669 19.65C24.5524 19.7597 24.7023 19.8693 24.6857 19.9633C24.6191 19.8693 24.4359 19.7753 24.669 19.65Z" fill="#F04F31"/>
<path d="M13.411 28.8133C13.4443 28.735 13.3277 28.641 13.411 28.5627C13.4776 28.641 13.4943 28.7193 13.5109 28.8133C13.4776 28.8133 13.4443 28.8133 13.411 28.8133Z" fill="#3A7070"/>
<path d="M23.5866 27.3409C23.5533 27.2939 23.52 27.2469 23.5367 27.1999C23.5533 27.1686 23.5866 27.153 23.6199 27.1686C23.6532 27.2313 23.6532 27.2939 23.5866 27.3409Z" fill="#F04F34"/>
<path d="M6.48291 23.7226C6.51622 23.6443 6.56618 23.5973 6.64945 23.566C6.64945 23.66 6.59949 23.7226 6.54953 23.7853C6.53287 23.7696 6.51622 23.7539 6.48291 23.7226Z" fill="#FDE4DF"/>
<path d="M11.9954 29.6121C11.9788 29.6278 11.9621 29.6434 11.9455 29.6591C11.9288 29.6434 11.9122 29.6278 11.8955 29.6121C11.8955 29.5964 11.9122 29.5808 11.9288 29.5651C11.9621 29.5808 11.9788 29.5964 11.9954 29.6121Z" fill="#F0494A"/>
<path d="M10.7795 8.59152C11.6289 8.8578 12.2617 8.45055 12.9112 8.05896C12.9612 8.16861 12.8779 8.23126 12.8113 8.29391C12.3783 8.82648 11.7954 9.06143 11.0959 9.06143C10.8628 9.06143 10.6962 9.01444 10.7628 8.73249C10.7962 8.70117 10.7795 8.65417 10.7795 8.59152Z" fill="#36333B"/>
<path d="M9.74695 13.1967C9.96345 13.228 10.1633 13.275 10.3798 13.3063C10.9294 13.3846 11.3457 13.134 11.7454 12.8207C11.8953 12.6954 12.0452 12.5858 12.2118 12.4761C11.962 12.9304 11.6955 13.369 11.1959 13.6039C10.9794 13.7136 10.7295 13.6509 10.513 13.5883C10.2133 13.5099 9.91349 13.3846 9.64703 13.2593C9.63037 13.1497 9.68033 13.1653 9.74695 13.1967Z" fill="#F0585E"/>
<path d="M13.1112 6.46123C12.8947 6.39857 12.6782 6.33591 12.4451 6.28892C11.9454 6.17928 11.4625 6.2576 10.9961 6.44556C10.8962 6.49255 10.7796 6.52388 10.6631 6.57088C10.5631 6.6022 10.4466 6.64919 10.3799 6.52388C10.3133 6.39857 10.3633 6.28893 10.4799 6.22627C10.6297 6.13229 10.8129 6.0853 10.9795 6.06964C11.7456 5.94433 12.4617 6.06964 13.1112 6.46123Z" fill="#5A4343"/>
<path d="M9.2973 11.4893C9.34726 11.3013 9.38057 11.0507 9.48049 10.8001C9.59707 10.5025 9.56377 10.2049 9.48049 9.90727C9.44719 9.79763 9.43053 9.67232 9.39722 9.56267C9.38057 9.51568 9.34726 9.46869 9.43053 9.43736C9.48049 9.4217 9.5138 9.45302 9.53045 9.50001C9.63038 9.84461 9.78027 10.1736 9.71365 10.5338C9.66369 10.8001 9.58042 11.0664 9.49714 11.3483C9.39722 11.7556 9.59707 11.9435 10.0301 11.8496C10.1633 11.8182 10.3132 11.7712 10.4464 11.7399C10.4964 11.7243 10.5464 11.7242 10.563 11.7712C10.5963 11.8182 10.5464 11.8496 10.5131 11.8809C10.3132 12.0375 9.61372 12.0375 9.41387 11.8966C9.28064 11.8026 9.2973 11.6773 9.2973 11.4893Z" fill="#E59E80"/>
<path d="M6.71603 7.40109C6.69938 7.38543 6.68272 7.36977 6.64941 7.3541C6.91588 6.94685 7.29893 6.71189 7.79855 6.6649C7.94844 6.64924 8.09833 6.6649 8.23156 6.75888C8.29818 6.80587 8.34814 6.86853 8.33148 6.96251C8.31483 7.05649 8.21491 7.05649 8.13163 7.04083C7.5987 6.91552 7.13238 7.11915 6.71603 7.40109Z" fill="#594241"/>
<path d="M9.74695 13.1966C9.69699 13.1966 9.66368 13.2123 9.63037 13.2436C9.5471 13.2123 9.48049 13.1653 9.39722 13.1339C9.53045 13.1183 9.64703 13.1339 9.74695 13.1966Z" fill="#F0866E"/>
<path d="M19.5396 34.1389C19.5396 33.763 19.5396 33.763 19.8893 33.951C19.7894 34.045 19.6561 34.092 19.5396 34.1389Z" fill="#E0E7E7"/>
<path d="M15.8423 35.3293C15.9589 35.2667 16.0755 35.204 16.1754 35.1414C16.1921 35.1414 16.2087 35.1414 16.2587 35.1414C16.1088 35.251 15.9922 35.345 15.8423 35.392C15.8257 35.3763 15.8257 35.3606 15.8257 35.345C15.8423 35.3293 15.8423 35.3293 15.8423 35.3293Z" fill="#AEA289"/>
<path d="M15.7426 34.5618C15.7093 34.6245 15.6426 34.6558 15.5427 34.6871C15.5594 34.5932 15.626 34.5462 15.7093 34.5148C15.7259 34.5305 15.7426 34.5462 15.7426 34.5618Z" fill="#D6AD8E"/>
<path d="M16.7084 34.8595C16.6417 34.9065 16.5585 34.9534 16.4419 35.0318C16.4919 34.9065 16.5585 34.8751 16.6251 34.8438C16.6751 34.8438 16.6917 34.8438 16.7084 34.8595Z" fill="#A49A88"/>
<path d="M16.7085 34.8595C16.6918 34.8595 16.6585 34.8595 16.6418 34.8595C16.6918 34.7968 16.7418 34.7342 16.825 34.7185C16.8417 34.7342 16.8583 34.7498 16.875 34.7655C16.825 34.7968 16.7751 34.8282 16.7085 34.8595Z" fill="#92978F"/>
<path d="M15.7426 34.5618C15.7259 34.5461 15.7093 34.5305 15.6926 34.5148C15.7592 34.4835 15.8092 34.4052 15.8925 34.4052C15.8758 34.4835 15.8092 34.5305 15.7426 34.5618Z" fill="#8A998B"/>
<path d="M15.8425 35.3294C15.8425 35.3451 15.8425 35.3764 15.8425 35.3921C15.8092 35.4391 15.7758 35.4547 15.7092 35.4704C15.7425 35.3764 15.7925 35.3607 15.8425 35.3294Z" fill="#BEA395"/>
<path d="M18.4572 16.2354C17.5245 16.6113 16.6252 17.0655 15.7092 17.5041C16.5586 16.9402 17.4579 16.486 18.4572 16.2354Z" fill="#E49E7E"/>
<path d="M10.7129 16.5173C11.2625 16.627 11.8121 16.7523 12.3117 16.9872C12.6448 17.1282 12.9612 17.2692 13.2444 17.4728C13.2943 17.5041 13.3776 17.5355 13.311 17.5981C13.2777 17.6451 13.2111 17.6138 13.1611 17.5825C12.4117 17.1126 11.579 16.8306 10.6963 16.6583C10.6463 16.6426 10.5797 16.6426 10.5964 16.5643C10.6297 16.5173 10.6796 16.5173 10.7129 16.5173Z" fill="#E49F7F"/>
<path d="M5.38359 27.9518C5.43355 27.9674 5.53348 27.9205 5.55013 27.9988C5.56679 28.1084 5.45021 28.0614 5.38359 28.0614C5.06716 28.1241 4.96723 28.3434 5.11712 28.6096C5.25036 28.8603 5.50017 28.9699 5.74998 29.0482C5.89987 29.0952 6.04976 29.0639 6.11637 28.8916C6.13303 28.8289 6.16634 28.7506 6.23295 28.7976C6.29957 28.8289 6.28291 28.9229 6.26626 28.9856C6.16633 29.1579 5.99979 29.2675 5.76663 29.2205C5.36693 29.1579 5.08381 28.9229 4.91727 28.5783C4.78404 28.2651 5.0172 27.9518 5.38359 27.9518Z" fill="#EFB590"/>
<path d="M5.99973 28.5313C5.99973 28.6409 5.94977 28.7192 5.81654 28.7036C5.68331 28.6879 5.56672 28.6253 5.58338 28.4843C5.60003 28.406 5.61669 28.2807 5.74992 28.312C5.89981 28.3433 6.01639 28.3903 5.99973 28.5313Z" fill="#F0B691"/>
<path d="M5.94995 24.2395C5.96661 24.1142 6.06653 24.0515 6.16645 23.9889C6.16645 24.0046 6.16645 24.0359 6.16645 24.0515C6.13315 24.0985 6.08319 24.1455 6.04988 24.1925C6.01657 24.2082 5.98326 24.2239 5.94995 24.2395Z" fill="#F04E3E"/>
<path d="M17.8077 34.0919C17.6911 33.9979 17.6578 33.8726 17.7244 33.7316C17.741 33.8569 17.7743 33.9666 17.8077 34.0919Z" fill="#427B90"/>
<path d="M18.0075 30.9435C18.0574 31.1315 17.8742 31.0375 17.8243 31.0688C17.7577 31.1002 17.791 31.0218 17.8076 30.9905C17.8576 30.9592 17.9242 30.8965 18.0075 30.9435Z" fill="#4D778E"/>
<path d="M18.0075 30.9435C17.9409 30.9592 17.8576 30.9749 17.791 31.0062C17.791 30.9592 17.791 30.8965 17.791 30.8495C17.8576 30.8809 17.9409 30.9122 18.0075 30.9435Z" fill="#36807D"/>
<path d="M13.3608 29.0639C13.3775 28.9856 13.3275 28.8759 13.4108 28.8133C13.3608 28.8916 13.5607 29.0169 13.3608 29.0639Z" fill="#3A7070"/>
<path d="M22.9372 25.2576C22.9372 25.3203 22.9372 25.3829 22.9372 25.5082C22.8706 25.3829 22.854 25.3203 22.9372 25.2576Z" fill="#F04D48"/>
</svg>
