<svg width="28" height="38" viewBox="0 0 28 38" fill="none" xmlns="http://www.w3.org/2000/svg">
<path d="M13.9025 17.6254C17.0779 17.6254 19.6551 13.9763 19.6857 9.47994C19.7164 4.98362 17.0779 1.22583 13.8718 1.22583C10.6657 1.22583 8.02721 4.91844 8.04255 9.43648C8.05789 13.9545 10.6657 17.6254 13.9025 17.6254Z" fill="white"/>
<path d="M3.02619 30.8103C3.04153 30.7451 3.04152 30.6799 3.05686 30.593C3.76251 30.593 4.46816 30.5713 5.18915 30.593C5.78741 30.6148 6.21695 30.2889 6.23229 29.3984C6.24763 28.4644 5.80275 28.0951 5.18915 28.0951C3.97727 28.0951 2.75007 28.1168 1.5382 28.0951C0.955268 28.0951 0.556409 28.4644 0.372326 29.2029C-0.133899 31.1795 -0.133896 33.1562 0.433691 35.0894C0.571753 35.5455 1.03195 36.0668 1.36944 36.1103C2.70403 36.2189 4.05398 36.1754 5.40391 36.1537C5.98684 36.132 6.29365 35.589 6.23229 34.807C6.17093 33.9381 5.71071 33.6558 5.12778 33.6558C4.40679 33.6558 3.67047 33.6558 2.94948 33.6558C2.94948 33.5689 2.94948 33.4603 2.94948 33.3734C3.65513 33.3734 4.36079 33.3734 5.06644 33.3734C5.83345 33.3734 6.27831 32.9389 6.23229 32.1353C6.18627 31.1361 5.69538 30.832 5.06644 30.8103C4.39147 30.8103 3.70115 30.8103 3.02619 30.8103Z" fill="white"/>
<path d="M1.90642 27.3349C2.30526 26.9873 2.59674 26.8353 2.76548 26.5529C3.13365 25.923 3.40976 25.1845 3.79327 24.5546C4.11541 24.0332 4.02338 23.5336 3.68589 23.2947C3.36375 23.0341 2.90353 22.8603 2.58139 22.9906C2.30526 23.1209 1.96779 23.6857 1.92177 24.1201C1.82973 25.0759 1.90642 26.0533 1.90642 27.3349Z" fill="white"/>
<path d="M25.9905 27.5087C25.9905 26.4661 26.0518 25.4669 25.9598 24.4894C25.9138 24.0767 25.5609 23.512 25.2695 23.4034C24.9473 23.2948 24.5332 23.5771 24.1803 23.7726C24.0883 23.8161 23.9962 24.2071 24.0423 24.3157C24.5332 25.38 25.0547 26.4444 25.5763 27.487C25.6223 27.5522 25.8064 27.487 25.9905 27.5087Z" fill="white"/>
<path d="M27.9848 33.178C27.8621 33.8948 27.7547 34.6333 27.5859 35.3501C27.3865 36.219 26.9877 36.6751 26.282 36.6534C25.1162 36.5882 23.9503 36.6317 22.7691 36.6317C22.1402 36.6317 21.6953 36.3276 21.6953 35.3718C21.6953 34.3944 22.1709 34.112 22.7845 34.0903C23.5361 34.0903 24.2878 34.0903 25.0548 34.0903C25.0548 34.0034 25.0548 33.8948 25.0548 33.8079C24.2878 33.8079 23.5361 33.7862 22.7691 33.8079C22.1862 33.8296 21.7413 33.5472 21.7107 32.6567C21.6646 31.6792 22.1402 31.3099 22.7231 31.2665C23.4288 31.2013 24.1344 31.2448 24.8554 31.0493C24.1498 31.0493 23.4441 31.0493 22.7231 31.0493C22.1248 31.0493 21.7107 30.7235 21.7107 29.8112C21.7107 28.9206 22.1249 28.5513 22.7078 28.5513C23.8276 28.5513 24.9474 28.5513 26.0673 28.5513C27.1718 28.5513 27.4939 28.9206 27.77 30.4194C27.8467 30.8321 27.9234 31.2448 28.0001 31.6358C27.9848 32.1571 27.9848 32.6567 27.9848 33.178Z" fill="#FCB122"/>
<path d="M24.4103 27.5303C23.72 27.5303 23.091 27.4 22.5081 27.5738C22.0326 27.7258 21.3729 28.1168 21.2195 28.6381C20.8667 29.8762 20.1764 30.5279 19.5628 31.3533C19.1793 31.8746 18.7498 32.3307 18.3816 32.8738C18.2589 33.0693 18.1208 33.482 18.1822 33.634C18.2896 33.9164 18.5503 34.2422 18.7498 34.264C19.4708 34.3291 20.2071 34.2857 20.9894 34.2857C20.9894 34.9156 20.9281 35.4586 21.0048 35.9582C21.1582 37.0009 21.8485 37.6525 22.7229 37.6959C23.5359 37.7177 24.3489 37.7176 25.162 37.7394C25.1773 37.7394 25.208 37.7828 25.3154 37.9131C24.9319 37.9349 24.6404 38 24.3489 38C17.4152 38 10.4661 38 3.53232 38C3.08745 38 2.62724 37.8045 2.18237 37.7177C2.18237 37.5873 2.19771 37.4353 2.19771 37.3049C3.02608 37.3049 3.8698 37.3049 4.69817 37.3049C6.37025 37.3049 6.79977 36.7619 7.01453 34.3291C7.62814 34.3291 8.27242 34.3943 8.88602 34.2857C9.14681 34.2422 9.45361 33.8947 9.57633 33.5689C9.65303 33.3734 9.46896 32.8738 9.31556 32.6349C8.87069 32.0049 8.37981 31.4184 7.90427 30.832C7.41338 30.2238 6.95317 29.6807 6.84579 28.6164C6.75375 27.6824 6.15547 27.1393 5.43448 27.1176C4.88224 27.0959 4.33001 27.1176 3.76242 27.1176C4.51409 23.4684 9.31556 19.2979 12.9972 18.9504C18.9032 18.3639 23.0604 23.5771 24.4103 27.5303ZM7.82757 25.7926C9.0241 27.2914 10.2053 28.8119 11.4172 30.2889C11.5399 30.441 11.8467 30.441 12.0154 30.3541C13.2887 29.659 14.5312 29.6807 15.7891 30.3975C15.9732 30.5061 16.28 30.5496 16.4027 30.3975C17.6453 28.8988 18.8572 27.3348 20.0997 25.7926C16.7249 21.5352 11.003 21.557 7.82757 25.7926Z" fill="#04475B"/>
<path d="M13.9025 16.3996C10.681 16.3996 8.05786 12.7504 8.05786 8.21065C8.05786 3.69261 10.681 0 13.8871 0C17.0932 0 19.7317 3.73607 19.701 8.25411C19.655 12.7504 17.0779 16.3779 13.9025 16.3996Z" fill="#FCB122"/>
<path d="M3.02619 30.8102C3.70115 30.8102 4.39147 30.7885 5.06644 30.8102C5.69538 30.8319 6.18627 31.136 6.23229 32.1352C6.26297 32.9389 5.83345 33.3733 5.06644 33.3733C4.36079 33.3733 3.65513 33.3733 2.94948 33.3733C2.94948 33.4602 2.94948 33.5688 2.94948 33.6557C3.67047 33.6557 4.40679 33.6557 5.12778 33.6557C5.69537 33.6557 6.15559 33.9598 6.23229 34.8069C6.29365 35.5889 5.98684 36.1536 5.40391 36.1536C4.05398 36.1971 2.70403 36.2405 1.36944 36.1102C1.03195 36.0885 0.571753 35.5455 0.433691 35.0893C-0.133896 33.1778 -0.133899 31.1794 0.372326 29.2028C0.571749 28.4426 0.955268 28.0733 1.5382 28.095C2.75007 28.1167 3.97727 28.095 5.18915 28.095C5.81809 28.095 6.26297 28.4643 6.23229 29.3983C6.21695 30.2672 5.78741 30.6147 5.18915 30.593C4.4835 30.5713 3.77785 30.593 3.05686 30.593C3.04152 30.6799 3.04153 30.745 3.02619 30.8102Z" fill="#FCB122"/>
<path d="M1.90626 27.3349C1.90626 26.0533 1.84491 25.0759 1.93695 24.1201C1.98297 23.6857 2.3051 23.0992 2.59657 22.9906C2.91871 22.8603 3.37893 23.0341 3.70107 23.2947C4.02322 23.5554 4.11525 24.0332 3.80845 24.5546C3.44028 25.1845 3.16417 25.923 2.78066 26.5529C2.59658 26.857 2.28976 26.9873 1.90626 27.3349Z" fill="#FCB122"/>
<path d="M25.9905 27.5086C25.8064 27.4869 25.6224 27.5521 25.5763 27.4652C25.0548 26.4226 24.5332 25.3799 24.0423 24.2939C23.9963 24.1853 24.1037 23.816 24.1804 23.7508C24.5332 23.5553 24.9474 23.273 25.2695 23.3816C25.561 23.4902 25.9138 24.0549 25.9599 24.4677C26.0672 25.4451 25.9905 26.466 25.9905 27.5086Z" fill="#FCB122"/>
</svg>
