<svg width="28" height="28" viewBox="0 0 28 28" fill="none" xmlns="http://www.w3.org/2000/svg">
<path d="M14.0001 9.91699C11.749 9.91699 9.91675 11.7487 9.91675 14.0003C9.91675 16.252 11.749 18.0837 14.0001 18.0837C16.2512 18.0837 18.0834 16.252 18.0834 14.0003C18.0834 11.7487 16.2512 9.91699 14.0001 9.91699ZM14.0001 15.7503C13.0352 15.7503 12.2501 14.9652 12.2501 14.0003C12.2501 13.0355 13.0352 12.2503 14.0001 12.2503C14.9649 12.2503 15.7501 13.0355 15.7501 14.0003C15.7501 14.9652 14.9649 15.7503 14.0001 15.7503Z" fill="#FCB716"/>
<path d="M26.8333 12.8333H24.4312C23.891 7.97475 20.0252 4.109 15.1667 3.56883V1.16667C15.1667 0.522667 14.644 0 14 0C13.356 0 12.8333 0.522667 12.8333 1.16667V3.56883C7.97475 4.109 4.109 7.97475 3.56883 12.8333H1.16667C0.522667 12.8333 0 13.356 0 14C0 14.644 0.522667 15.1667 1.16667 15.1667H3.56883C4.109 20.0252 7.97475 23.891 12.8333 24.4312V26.8333C12.8333 27.4773 13.356 28 14 28C14.644 28 15.1667 27.4773 15.1667 26.8333V24.4312C20.0252 23.891 23.891 20.0252 24.4312 15.1667H26.8333C27.4773 15.1667 28 14.644 28 14C28 13.356 27.4773 12.8333 26.8333 12.8333ZM14 22.1667C9.49667 22.1667 5.83333 18.5033 5.83333 14C5.83333 9.49667 9.49667 5.83333 14 5.83333C18.5033 5.83333 22.1667 9.49667 22.1667 14C22.1667 18.5033 18.5033 22.1667 14 22.1667Z" fill="#FCB716"/>
</svg>
