<svg width="41" height="56" viewBox="0 0 41 56" fill="none" xmlns="http://www.w3.org/2000/svg">
<path d="M25.1945 29.8712C24.6897 30.7257 24.3795 31.7134 24.1745 32.7951C23.9799 33.8142 23.9694 34.8567 23.9694 35.8993C23.9694 38.8545 23.9747 41.8019 23.9747 44.7572C23.9747 48.026 23.9799 51.2869 23.9694 54.5557C23.9694 54.8066 23.9063 55.0966 23.8117 55.3083C23.675 55.614 23.4542 55.7159 23.2071 55.5905C22.9652 55.4729 22.8443 55.2064 22.8075 54.8379C22.8022 54.7595 22.8022 54.6811 22.8022 54.6028C22.8022 48.0181 22.7759 41.4335 22.818 34.8489C22.839 31.3057 23.9063 28.5073 25.857 26.4849C26.1304 26.2027 26.3091 25.8734 26.4458 25.4345C27.0189 23.6237 27.4238 21.7424 27.4185 19.7199C27.4133 17.9013 27.0557 16.2317 26.3565 14.6953C26.3091 14.7815 26.2618 14.8364 26.2355 14.9069C24.7949 18.3482 23.3543 21.7894 21.9189 25.2385C21.2985 26.7279 21.0777 28.3662 21.0934 30.0986C21.1039 31.3998 21.0934 32.7089 21.0934 34.0101C21.0934 40.8534 21.0882 47.7046 21.0882 54.5479C21.0882 54.9869 21.0303 55.3631 20.7412 55.5513C20.3311 55.8256 19.9262 55.4023 19.9209 54.6968C19.9157 53.4034 19.9157 52.11 19.9157 50.8166C19.9157 44.6004 19.9157 38.3764 19.9104 32.1602C19.9104 31.0549 19.9157 29.9418 19.8736 28.8365C19.8263 27.5117 19.5214 26.2811 19.0587 25.1601C17.6338 21.7345 16.2037 18.3168 14.7736 14.8912C14.7473 14.8285 14.7158 14.7658 14.6684 14.6639C14.3056 15.4007 14.0585 16.1768 13.8798 17.0077C13.3698 19.4064 13.5853 21.7502 14.1637 24.047C14.211 24.243 14.2688 24.4311 14.3162 24.6271C14.5423 25.552 14.9208 26.2419 15.4729 26.8454C16.9976 28.5073 17.8704 30.8119 18.128 33.6025C18.1754 34.1277 18.1911 34.6686 18.1911 35.2016C18.1964 41.653 18.1911 48.1122 18.1911 54.5636C18.1911 55.2612 18.0229 55.5748 17.6338 55.5905C17.3236 55.6061 17.0712 55.3083 17.0397 54.8536C17.0239 54.6576 17.0292 54.4617 17.0292 54.2657C17.0292 48.2063 17.0292 42.139 17.0397 36.0796C17.0397 34.5432 17.0134 33.0146 16.556 31.6036C16.3562 30.9922 16.1196 30.4043 15.8988 29.8085C15.8777 29.8242 15.8567 29.8399 15.8357 29.8556C15.883 30.4592 15.9566 31.0549 15.9776 31.6585C16.0775 34.6843 15.1837 36.9027 13.4749 38.4391C12.1237 39.6619 10.6568 40.2734 9.06891 40.1088C8.11725 40.0069 7.21817 39.6227 6.36116 38.9878C4.64187 37.7101 3.41681 35.6798 2.42309 33.3046C1.23483 30.4592 0.493489 27.3785 0.188539 24.047C-0.0480611 21.4445 -0.0638351 18.842 0.151733 16.2395C0.493489 12.179 1.37679 8.43202 3.12237 5.20242C4.49991 2.66264 6.17188 0.781321 8.37489 0.18557C9.82603 -0.206372 11.2351 0.0915041 12.5706 1.04784C13.5065 1.72198 14.3845 2.5137 15.1522 3.56411C16.9398 5.99415 17.2185 9.35701 15.8619 12.3436C15.7358 12.6258 15.5991 12.9002 15.4518 13.2059C17.1396 17.2507 18.8273 21.3112 20.494 25.309C22.1555 21.3112 23.8432 17.2586 25.4889 13.3078C25.1629 12.375 24.8002 11.544 24.5636 10.6426C23.9799 8.40851 24.2271 6.3077 25.2576 4.49693C26.5773 2.18447 28.2808 0.734288 30.2735 0.169892C31.8824 -0.28476 33.4229 0.193409 34.8635 1.3614C36.3304 2.54506 37.4609 4.25393 38.4073 6.27635C39.7322 9.10616 40.4525 12.2731 40.789 15.6594C41.0414 18.1914 41.0624 20.739 40.8784 23.2788C40.6839 25.9126 40.2422 28.4446 39.4641 30.8433C38.8226 32.8186 38.0708 34.6686 37.0613 36.2599C35.3998 38.8781 33.3913 40.3674 30.9412 40.0931C28.9275 39.8658 27.1714 38.7134 25.9043 36.2756C25.1367 34.8019 24.9211 33.0773 25.0473 31.243C25.0788 30.7884 25.1472 30.3337 25.1945 29.8712ZM28.2125 23.4826C28.8854 22.9966 29.5269 22.7693 30.2209 22.9652C30.9728 23.1769 31.5879 23.7491 32.1242 24.5252C32.3556 24.8544 32.3398 25.3404 32.1347 25.6931C31.9665 25.991 31.5932 26.0694 31.3671 25.8342C31.283 25.748 31.2094 25.6304 31.1305 25.5285C30.1736 24.3449 29.2377 24.3292 28.2861 25.5207C27.1083 26.9944 26.4511 28.9071 26.2303 31.1646C26.0568 32.9362 26.3197 34.5432 27.1767 35.8209C28.2808 37.4592 29.6583 38.2901 31.2094 38.3921C33.0549 38.5096 34.6217 37.4514 35.9098 35.5466C37.6975 32.9127 38.7963 29.6753 39.38 26.0537C39.9162 22.7144 39.9793 19.3437 39.6481 15.9495C39.3799 13.2216 38.8489 10.6426 37.8867 8.27525C37.0297 6.1666 35.9729 4.34799 34.527 3.09378C33.3493 2.07473 32.0822 1.55737 30.7257 1.86308C28.938 2.2707 27.4501 3.57195 26.2355 5.53166C25.6624 6.45664 25.347 7.58543 25.4784 8.871C25.7098 11.1521 26.5878 12.7591 27.918 13.8722C28.7803 14.5933 29.6163 14.6953 30.4207 13.6684C30.6626 13.3548 31.0622 13.4646 31.2462 13.8173C31.4302 14.1701 31.3934 14.6953 31.141 15.0088C30.4417 15.8789 29.6373 16.2709 28.7277 16.0906C28.5279 16.0514 28.3281 15.9808 28.1073 15.9103C28.7593 18.403 28.7119 20.8879 28.2125 23.4826ZM12.8966 15.9024C12.7283 15.9573 12.6021 15.9965 12.4759 16.0357C11.5085 16.3022 10.6357 16.0122 9.87861 15.0558C9.69984 14.8285 9.59995 14.5463 9.63675 14.1936C9.71562 13.4881 10.2414 13.2294 10.6305 13.7232C11.2509 14.4993 11.9449 14.6247 12.6652 14.1622C13.8587 13.4018 14.742 12.1476 15.2678 10.3447C15.7463 8.69854 15.6306 7.16997 14.905 5.7433C14.3056 4.55964 13.4907 3.77576 12.6389 3.07026C10.5306 1.30652 8.43272 1.33788 6.36642 3.20352C4.59455 4.81048 3.41155 7.20133 2.5335 9.93708C1.89731 11.9125 1.54504 14.0211 1.3505 16.1925C1.08762 19.1007 1.11916 22.001 1.47143 24.8857C1.89731 28.3583 2.8332 31.5017 4.31589 34.261C5.20445 35.9228 6.27703 37.2397 7.64931 37.9296C9.51582 38.8624 11.2772 38.4156 12.9334 36.9184C14.4161 35.5779 15.0365 33.6104 14.7736 31.0471C14.537 28.7424 13.8272 26.8376 12.5916 25.3953C11.8818 24.5643 11.1089 24.3605 10.2992 25.0895C10.0837 25.2855 9.89438 25.5364 9.69459 25.7715C9.43695 26.0694 9.06891 26.038 8.86386 25.6853C8.65355 25.3169 8.67458 24.7995 8.92169 24.4546C9.03211 24.3057 9.14252 24.1567 9.26345 24.0235C10.0153 23.1612 10.846 22.6909 11.8082 22.9731C12.1342 23.0671 12.4444 23.2553 12.7967 23.412C12.3024 20.8958 12.2656 18.4109 12.8966 15.9024Z" fill="#294655"/>
<path d="M28.2125 23.4825C28.712 20.8879 28.7593 18.4029 28.1126 15.9102C28.3334 15.9729 28.528 16.0513 28.733 16.0905C29.6426 16.2708 30.4471 15.8788 31.1463 15.0087C31.3987 14.6952 31.4355 14.1621 31.2515 13.8172C31.0675 13.4645 30.6679 13.3626 30.426 13.6683C29.6216 14.6952 28.7804 14.5854 27.9233 13.8721C26.5984 12.7668 25.7203 11.152 25.4837 8.87092C25.3523 7.58535 25.6678 6.45656 26.2408 5.53158C27.4554 3.56403 28.9433 2.26278 30.731 1.863C32.0875 1.55729 33.3546 2.07465 34.5324 3.0937C35.9782 4.34792 37.0351 6.16653 37.8921 8.27517C38.8542 10.6425 39.3905 13.2215 39.6534 15.9494C39.9847 19.3436 39.9268 22.7221 39.3853 26.0537C38.8017 29.6752 37.7028 32.9126 35.9151 35.5465C34.6217 37.4513 33.0602 38.5174 31.2147 38.392C29.6637 38.2901 28.2861 37.467 27.182 35.8208C26.325 34.5509 26.0621 32.9361 26.2356 31.1646C26.4564 28.907 27.1084 26.9943 28.2914 25.5206C29.243 24.3291 30.1789 24.3369 31.1358 25.5284C31.2147 25.6304 31.2883 25.7479 31.3724 25.8342C31.5985 26.0615 31.9666 25.9909 32.1401 25.6931C32.3451 25.3325 32.3609 24.8543 32.1295 24.5251C31.5933 23.749 30.9781 23.1768 30.2262 22.9652C29.527 22.7692 28.8802 22.9965 28.2125 23.4825ZM38.5493 19.5004C38.5598 18.207 38.4231 16.749 38.1707 15.3223C37.6397 12.2965 36.6407 9.64697 35.2474 7.33451C34.7584 6.51927 34.2064 5.79026 33.6648 5.05341C33.3651 4.64579 32.9971 4.7085 32.7815 5.10828C32.5712 5.50806 32.608 6.01759 32.8919 6.35466C33.8278 7.48345 34.6323 8.80821 35.3158 10.2819C36.5303 12.9001 37.2769 15.7691 37.3715 18.9752C37.4609 22.0558 36.9562 24.9405 36.0571 27.692C35.3946 29.7222 34.5481 31.5644 33.6228 33.3359C33.5123 33.5476 33.4598 33.8846 33.4703 34.1512C33.4808 34.4804 33.6543 34.7077 33.8804 34.7861C34.1696 34.888 34.3851 34.6999 34.5639 34.3628C35.4945 32.5991 36.3463 30.7491 37.0193 28.7345C37.9657 25.8812 38.5545 22.9024 38.5493 19.5004Z" fill="#F7C91B"/>
<path d="M12.8967 15.9026C12.2658 18.411 12.3026 20.8959 12.7916 23.42C12.4393 23.2632 12.1238 23.0751 11.8031 22.981C10.8409 22.6988 10.0102 23.1692 9.25836 24.0314C9.14269 24.1647 9.02702 24.3058 8.91661 24.4626C8.66949 24.8075 8.64846 25.3249 8.85877 25.6933C9.05856 26.046 9.42661 26.0774 9.6895 25.7795C9.88929 25.5443 10.0786 25.2935 10.2941 25.0975C11.1038 24.3685 11.8715 24.5723 12.5865 25.4032C13.8221 26.8456 14.5319 28.7583 14.7685 31.055C15.0314 33.6183 14.411 35.5859 12.9283 36.9263C11.2721 38.4235 9.51073 38.8704 7.64423 37.9375C6.27195 37.2477 5.19936 35.9308 4.3108 34.269C2.82811 31.5097 1.89223 28.3663 1.46635 24.8937C1.11408 22.009 1.08779 19.1087 1.34542 16.2005C1.53996 14.0291 1.89748 11.9204 2.52842 9.94506C3.41172 7.19363 4.58946 4.80279 6.36133 3.20366C8.42763 1.33018 10.5255 1.30667 12.6339 3.0704C13.4856 3.78374 14.3006 4.56762 14.8999 5.74345C15.6255 7.17011 15.7412 8.69869 15.2627 10.3448C14.7422 12.1478 13.8537 13.402 12.6601 14.1624C11.9398 14.6248 11.2458 14.4916 10.6254 13.7234C10.231 13.2374 9.70527 13.4961 9.63166 14.1937C9.59486 14.5465 9.6895 14.8287 9.87352 15.056C10.6359 16.0123 11.5087 16.3024 12.4709 16.0358C12.6023 15.9966 12.7232 15.9574 12.8967 15.9026ZM6.09318 9.40418C6.13525 9.34147 6.17731 9.27876 6.21937 9.21605C6.82927 8.28323 7.42866 7.34257 8.05433 6.43326C8.34351 6.00997 8.42763 5.53964 8.21206 5.13202C7.98598 4.70088 7.63371 4.66169 7.30773 5.07715C6.93443 5.55531 6.56112 6.03348 6.22463 6.55869C5.88813 7.08389 5.59369 7.66396 5.28349 8.22052C5.20988 8.33026 5.13101 8.42433 5.06792 8.54975C4.40544 9.84316 3.85337 11.2306 3.41698 12.72C2.34439 16.4043 2.16037 20.2139 2.80182 24.0942C3.44853 27.9901 4.79977 31.3529 6.48226 34.4493C6.7136 34.8804 7.09216 34.9431 7.33928 34.6217C7.60216 34.2925 7.60216 33.7986 7.37608 33.3283C6.80824 32.1525 6.21411 31.0002 5.70411 29.7773C4.59472 27.1121 3.84286 24.2431 3.64832 21.084C3.46956 18.121 3.8376 15.3068 4.73668 12.673C5.13627 11.5285 5.64102 10.4859 6.09318 9.40418Z" fill="#F7C91B"/>
<path d="M38.5492 19.5006C38.5545 22.9026 37.9656 25.8814 37.0139 28.7347C36.3409 30.7493 35.4892 32.5993 34.5585 34.363C34.3798 34.7001 34.1695 34.8882 33.875 34.7863C33.649 34.7079 33.4754 34.4806 33.4649 34.1514C33.4544 33.877 33.507 33.5478 33.6174 33.3361C34.5428 31.5645 35.3893 29.7146 36.0518 27.6922C36.9508 24.9407 37.4556 22.056 37.3662 18.9754C37.2716 15.7693 36.525 12.9003 35.3104 10.2821C34.6269 8.8084 33.8225 7.48364 32.8866 6.35485C32.6079 6.01778 32.5659 5.50042 32.7762 5.10847C32.9917 4.70086 33.3598 4.64598 33.6595 5.0536C34.201 5.79045 34.7531 6.51946 35.2421 7.3347C36.6354 9.64716 37.6343 12.2967 38.1654 15.3225C38.423 16.7491 38.5545 18.2072 38.5492 19.5006Z" fill="#E87525"/>
<path d="M6.09353 9.40416C5.64136 10.4859 5.13661 11.5363 4.75279 12.6651C3.84846 15.299 3.48041 18.1131 3.66444 21.0762C3.85897 24.2352 4.61084 27.1042 5.72022 29.7694C6.23023 31.0001 6.82436 32.1525 7.39219 33.3204C7.61828 33.7908 7.61302 34.2768 7.35539 34.6138C7.10302 34.9352 6.72972 34.8725 6.49837 34.4414C4.81589 31.3529 3.46464 27.99 2.81794 24.0863C2.17649 20.2061 2.35525 16.3964 3.4331 12.7121C3.86949 11.2228 4.42155 9.83529 5.08403 8.54189C5.14713 8.4243 5.22599 8.3224 5.2996 8.21266C5.55198 8.61244 5.82538 9.00438 6.09353 9.40416Z" fill="#E87525"/>
<path d="M6.0935 9.40412C5.82535 9.00434 5.55721 8.6124 5.28906 8.21262C5.59927 7.65606 5.8937 7.06815 6.2302 6.55079C6.5667 6.02559 6.94 5.54742 7.3133 5.06925C7.63929 4.65379 7.9863 4.69298 8.21764 5.12412C8.43321 5.53174 8.34908 6.00207 8.05991 6.42537C7.43423 7.33467 6.83485 8.28317 6.22494 9.20815C6.17762 9.27086 6.13556 9.33357 6.0935 9.40412Z" fill="#E87525"/>
</svg>
