<svg width="41" height="56" viewBox="0 0 41 56" fill="none" xmlns="http://www.w3.org/2000/svg">
<path d="M41 5.33389C41 6.32882 41 7.32376 41 8.36195C39.9919 10.7844 38.5026 11.6496 37.0362 12.5147C35.1575 13.6395 33.714 15.6293 32.683 18.9169C31.5374 22.5505 30.1169 25.7949 28.1694 28.1741C27.7111 28.7364 27.2987 29.7314 27.1154 30.6831C26.4052 34.7493 25.0304 37.4313 22.808 38.4695C21.3875 39.1616 19.944 39.7672 18.3631 40.5026C18.5464 42.0166 18.7526 43.5306 18.8672 45.0447C18.913 45.6935 18.8672 46.9048 18.7526 46.948C17.9049 47.2941 17.0342 47.6402 16.1865 47.5536C15.3846 47.4671 15.1325 46.2126 15.1783 44.6986C15.2013 43.9632 15.0867 43.2278 15.0409 42.4924C14.9263 42.3627 14.8118 42.2329 14.6972 42.1031C13.5287 44.3093 12.2686 46.3424 11.2146 48.7216C9.86281 51.7496 8.55682 54.7777 6.35728 55.6429C6.12816 55.6429 5.89905 55.6429 5.66993 55.6429C3.17254 54.9075 1.72911 52.0092 0.995936 47.6834C0.766817 46.3424 0.491864 44.9149 0.468952 43.5306C0.285658 36.6959 0.148187 29.8179 0.0107156 22.9831C-0.241315 11.6928 3.99739 4.85809 7.98405 2.39239C10.9626 0.575555 13.8953 1.18118 16.7822 3.2143C20.9521 6.11258 25.0763 6.24233 29.1317 2.43563C29.8419 1.78677 30.598 1.22443 31.3541 0.835113C34.9742 -0.981719 38.2735 0.0131699 41 5.33389ZM33.8515 9.91927C33.8057 9.7895 33.7598 9.70296 33.714 9.57319C33.2558 10.1355 32.7746 10.6979 32.3164 11.2603C31.1021 12.731 29.9107 14.245 28.6734 15.6293C27.5278 16.8838 26.2677 17.3164 24.9388 16.8838C23.9765 16.5377 23.4724 15.8023 23.7703 13.6827C24.0452 11.6496 24.0452 9.57319 23.2891 7.41029C23.7015 16.4079 23.1975 18.7439 18.9817 19.7388C18.7297 19.7821 18.4548 19.8686 18.2027 19.9551C15.0867 20.7337 11.9707 21.4259 9.03798 23.8483C8.74013 24.1078 8.25898 23.8483 7.9153 23.632C6.63224 22.7668 5.50956 23.459 5.37209 25.5354C5.23462 27.482 5.32626 29.4286 4.50143 30.9426C4.8222 30.3802 5.14297 29.8179 5.48665 29.2555C6.72389 33.0622 8.48809 33.9706 10.5731 33.5813C11.8332 33.365 13.1163 33.1055 14.2848 32.846C12.5664 30.51 9.90863 29.7746 8.94633 24.7135C10.2752 23.9781 11.5125 23.0696 12.7955 22.5938C16.049 21.4258 19.3254 20.5174 22.556 19.4793C22.1894 27.0061 23.4495 28.2173 25.1679 28.3904C22.8309 26.0112 22.4414 23.2427 23.6099 17.0135C25.9927 19.0899 28.1006 17.6624 30.094 15.0237C31.3541 13.3366 32.5913 11.6063 33.8515 9.91927ZM18.0882 46.2559C17.9736 42.5357 17.7674 39.0751 17.8132 35.6144C17.8361 33.4948 17.4237 32.846 16.3927 32.846C16.3239 34.5763 16.2552 36.2201 16.1865 38.0802C15.0867 37.1717 14.8576 34.706 13.5974 35.0521C15.4075 39.4212 15.6595 40.4593 15.8657 43.7902C16.0261 46.6885 16.7135 47.3374 18.0882 46.2559ZM13.5516 28.7797C13.5287 28.9095 13.5058 29.0825 13.4829 29.2123C15.2929 30.3802 17.0571 31.678 18.8901 32.6729C19.9211 33.2353 21.0438 33.4948 22.1206 33.6246C23.0142 33.7111 23.839 33.0622 24.2744 31.4184C23.2662 32.9325 22.1436 33.1055 20.9521 32.5431C19.8065 32.024 18.6839 31.3752 17.5612 30.8128C16.2323 30.1639 14.9034 29.4718 13.5516 28.7797Z" fill="#228899"/>
<path d="M33.8515 9.91908C32.5913 11.6494 31.3312 13.3797 30.071 15.0667C28.0777 17.7055 25.9698 19.133 23.587 17.0566C22.3956 23.2858 22.7851 26.0542 25.145 28.4334C23.4266 28.2604 22.1665 27.0492 22.5331 19.5223C19.3254 20.5172 16.049 21.4689 12.7726 22.6369C11.4895 23.0694 10.2523 24.0211 8.92342 24.7565C9.88572 29.8609 12.5435 30.5963 14.2619 32.889C13.0704 33.1053 11.8103 33.3648 10.5502 33.6244C8.48809 34.0137 6.70098 33.1053 5.46374 29.2986C5.12006 29.9042 4.79928 30.4666 4.47852 30.9857C5.30334 29.4716 5.21171 27.525 5.34918 25.5784C5.50956 23.4588 6.63223 22.8099 7.89239 23.6751C8.23606 23.8914 8.71722 24.1509 9.01507 23.8914C11.9249 21.4257 15.0638 20.7768 18.1798 19.9981C18.4318 19.9116 18.7068 19.8684 18.9588 19.7818C23.1746 18.7869 23.6786 16.451 23.2662 7.45335C24.0452 9.61624 24.0452 11.6926 23.7474 13.7257C23.4495 15.8454 23.9536 16.5808 24.9159 16.9268C26.2448 17.3594 27.5049 16.9701 28.6505 15.6723C29.8877 14.2881 31.0792 12.7741 32.2935 11.3033C32.7517 10.741 33.2329 10.1786 33.6911 9.61624C33.7598 9.6595 33.8057 9.7893 33.8515 9.91908Z" fill="#FCB01A"/>
<path d="M18.0879 46.256C16.7132 47.3374 16.0258 46.6885 15.8425 43.747C15.6592 40.4594 15.3843 39.378 13.5742 35.0089C14.8344 34.6629 15.0864 37.1718 16.1633 38.037C16.232 36.2201 16.3007 34.533 16.3695 32.8027C17.4005 32.8027 17.8129 33.4083 17.79 35.5712C17.7671 39.0319 17.9733 42.4925 18.0879 46.256Z" fill="#FCB01A"/>
<path d="M13.5521 28.7799C14.881 29.472 16.2328 30.1208 17.5617 30.813C18.6844 31.3753 19.8071 32.0242 20.9527 32.5433C22.1441 33.1056 23.2667 32.9326 24.2749 31.4186C23.8395 33.0624 23.0147 33.7112 22.1212 33.6247C21.0443 33.5382 19.9216 33.2787 18.8906 32.6731C17.0576 31.6781 15.2705 30.3804 13.4834 29.2124C13.5063 29.0827 13.5292 28.9529 13.5521 28.7799Z" fill="#FCB01A"/>
</svg>
