<svg width="41" height="56" viewBox="0 0 41 56" fill="none" xmlns="http://www.w3.org/2000/svg">
<path d="M10.1149 20.8544C10.2661 20.7086 10.4172 20.5627 10.5684 20.4412C10.644 20.4169 10.6943 20.3926 10.7699 20.3683C12.6341 19.0072 14.7754 17.9377 16.8663 16.9898C18.1511 16.4065 19.6878 15.7745 21.1489 15.0211C21.1993 14.9725 21.2749 14.9239 21.3253 14.8752C21.8543 14.5593 22.3833 14.219 22.8368 13.8058C22.9376 13.8301 23.0131 13.8544 23.1139 13.8544C25.2552 12.4204 26.9179 10.5732 26.8927 7.94816C26.8675 7.80232 26.8171 7.68079 26.7667 7.53496C26.7163 7.38913 26.6408 7.29191 26.54 7.19469C26.54 7.2433 26.54 7.29191 26.5148 7.34052C26.2881 7.75371 24.4995 7.29191 23.9452 7.21899C22.081 6.97593 20.1665 6.8058 18.3023 7.07316C15.7831 7.43775 13.541 8.5801 11.702 10.2815C11.173 10.7919 10.6691 11.3266 10.2409 11.91C10.0897 12.1287 9.96378 12.3475 9.81263 12.5905C9.71186 12.712 9.5859 12.8579 9.48513 12.9794C8.88053 13.9273 8.40188 14.9482 7.99881 15.9933C7.59574 17.0627 7.29344 18.1808 7.06671 19.3232C6.83999 20.4655 6.8148 21.6808 6.41173 22.7745C6.41173 22.7989 6.38654 22.8232 6.36135 22.8475C6.33615 23.0905 6.31096 23.3336 6.28577 23.5523C6.26058 23.9898 6.53769 24.2572 6.86518 24.3301C7.77209 22.9933 8.85533 21.8509 10.1149 20.8544Z" fill="#FDD4B9"/>
<path d="M8.22543 28.0242C8.3262 28.17 8.45215 28.2915 8.60331 28.413C9.98886 28.8262 10.8958 30.2603 11.3744 31.4999C11.9034 32.8853 12.105 34.3193 12.3317 35.7533C12.634 37.6006 13.163 39.4235 14.1455 41.0033C14.2967 41.1978 14.473 41.3679 14.6241 41.538C14.6241 41.611 14.6493 41.7082 14.6745 41.7811C14.8761 42.0485 15.0776 42.2915 15.3043 42.5589C16.2112 43.5554 17.2945 44.479 18.5289 45.0138C18.9571 45.2082 19.4106 45.354 19.864 45.4756C20.2167 45.5242 20.5442 45.5728 20.8969 45.5971C20.9473 45.6457 21.0229 45.67 21.0733 45.7186C21.5267 45.7915 22.0054 45.8158 22.4588 45.8158C23.5924 45.8158 24.9528 45.6214 26.036 45.4026C27.2956 44.7707 28.4041 43.8714 29.3362 42.8263C29.6637 42.4374 29.9912 42.0485 30.2683 41.611C29.8904 41.7811 29.6133 41.3193 29.7896 41.0276C30.0919 40.4443 30.5706 39.9825 30.7973 39.3505C30.9988 38.8401 31.0996 38.3054 31.0996 37.7464C31.0744 36.6526 30.6461 35.5589 29.9912 34.6839C28.5552 32.7881 26.0612 31.5728 23.6176 32.3749C23.1894 32.5207 22.7863 32.2047 22.9123 31.7672C23.2901 30.3332 23.139 28.8992 21.8542 27.9513C21.4008 27.6353 20.9473 27.3922 20.4435 27.1735C20.3679 27.1735 20.2923 27.1735 20.2167 27.1978C20.2167 27.1492 20.1915 27.1249 20.1915 27.0762C19.6625 26.8575 19.1335 26.663 18.6045 26.4686C18.3777 26.5901 18.2266 26.7603 18.0502 26.9061C17.9747 26.979 17.8739 27.052 17.7983 27.1006C17.7983 27.1006 17.6472 27.1978 17.622 27.2221C17.2441 27.4408 16.8158 27.6353 16.4128 27.7811C16.1609 27.8783 15.5059 27.9999 15.1028 28.0728C14.5738 28.1457 14.0699 28.17 13.5409 28.1457C12.7851 28.1214 10.1904 26.8089 9.51021 26.4929C8.9308 26.2256 8.17505 26.0797 7.46967 26.1769C7.31852 26.4929 7.19256 26.8332 7.0918 27.1735C7.44448 27.5137 7.84755 27.7568 8.22543 28.0242Z" fill="#A2D9D6"/>
<path d="M24.8512 20.9027C23.9443 21.4374 23.6924 22.5069 23.6924 23.4548C23.6924 25.5937 25.8841 28.5832 26.0352 28.7777C26.4131 29.1909 27.0681 29.0207 27.5467 28.8749C28.0506 28.7534 28.5544 28.5347 29.0331 28.3159C30.0155 27.8541 30.9728 27.2708 31.7538 26.5173C32.4843 25.8367 33.1141 24.9131 33.1141 23.8923C33.1141 23.3819 32.963 22.8714 32.6607 22.4339C32.3332 21.9478 31.8293 21.6805 31.2247 21.5832C30.3682 21.4617 29.3857 21.8263 28.7307 22.3367C28.6048 22.4339 28.4788 22.5555 28.3781 22.677C28.2269 22.2638 28.0002 21.8749 27.7231 21.5346C27.0429 20.684 25.8589 20.2951 24.8512 20.9027Z" fill="#FABBB0"/>
<path d="M40.1433 19.7361C40.0929 19.3958 40.0425 19.0556 40.0174 18.7639C39.2868 13.1007 37.1203 8.38542 33.7698 5.10417C30.3437 1.77431 25.7588 0 20.4937 0C15.2286 0 10.6437 1.77431 7.21761 5.10417C3.8671 8.38542 1.7006 13.1007 0.970041 18.7639C0.919657 19.0799 0.894465 19.3958 0.844081 19.7361C0.26467 23.8924 -0.617049 30.1875 0.642542 37.6736C1.52426 44.3091 3.69076 49 7.2428 51.9896C10.4422 54.6875 14.7752 56 20.5189 56C26.2626 56 30.5956 54.6875 33.795 51.9896C37.347 49 39.4883 44.3091 40.3952 37.6736C41.6044 30.1875 40.7227 23.9167 40.1433 19.7361ZM39.0097 37.4792C38.1532 43.8229 36.163 48.2465 32.8629 51.0174C29.9154 53.4965 25.8847 54.7118 20.4685 54.7118C15.0775 54.7118 11.0216 53.4965 8.07413 51.0174C4.79919 48.2465 2.78385 43.8229 1.92733 37.5035V37.4792C0.692927 30.1875 1.54945 24.0139 2.12887 19.9063C2.17925 19.566 2.22963 19.2257 2.25482 18.9097C2.9602 13.5382 5.00073 9.06598 8.12452 6.00348C11.2987 2.91667 15.5561 1.28819 20.4433 1.28819C25.3305 1.28819 29.5879 2.91667 32.7621 6.00348C35.9111 9.06598 37.9516 13.5382 38.6318 18.9097C38.6822 19.2257 38.7074 19.5417 38.7578 19.8819C39.3876 24.0139 40.2441 30.1875 39.0097 37.4792Z" fill="#7F6876"/>
<path d="M6.36065 31.1111C6.58738 29.8472 6.66296 28.6076 7.04083 27.3681C7.06603 27.3194 7.06602 27.2465 7.09121 27.1979C7.19198 26.8576 7.31794 26.5173 7.46909 26.2014C7.7462 25.5694 8.09889 24.9861 8.52715 24.4271C9.83712 22.6285 11.6761 21.2917 13.5907 20.1736C17.7222 17.7673 22.8361 16.4549 25.9347 12.6875C27.0683 11.3021 27.6981 9.55208 27.3202 7.80208C27.2699 7.58333 26.9172 7.60763 26.9172 7.82638C26.9172 7.87499 26.9172 7.9236 26.9172 7.99652C26.9424 10.6215 25.2797 12.493 23.1384 13.9028C22.5086 14.316 21.8284 14.7048 21.1483 15.0694C19.6871 15.8229 18.1504 16.4549 16.8656 17.0382C14.7747 17.9861 12.6334 19.0555 10.7692 20.4167C10.5425 20.5868 10.341 20.7326 10.1142 20.9028C8.87983 21.8993 7.77139 23.0173 6.94006 24.3785C6.68814 24.7673 6.48661 25.1562 6.28508 25.5937C5.50413 27.2465 5.05068 29.434 5.45374 31.2326C5.55451 31.6701 6.25988 31.5972 6.36065 31.1111Z" fill="#7F6876"/>
<path d="M21.098 45.7432C20.6949 45.6946 20.2667 45.5974 19.8636 45.5001C19.4101 45.3786 18.9567 45.2328 18.5284 45.0383C17.2688 44.5036 16.1856 43.5557 15.3039 42.5835C15.0772 42.3404 14.8756 42.0731 14.6741 41.8057C14.4726 41.5627 14.2962 41.2953 14.1451 41.0279C13.1626 39.4237 12.6336 37.6008 12.3313 35.7779C12.1045 34.3439 11.903 32.8856 11.374 31.5244C10.8953 30.2849 9.98841 28.8508 8.60286 28.4377C8.37613 28.3647 8.22498 28.6321 8.40133 28.7779C9.33342 29.5557 10.0388 30.3092 10.4671 31.4515C10.8953 32.521 11.0465 33.6876 11.1976 34.83C11.5503 37.2606 12.0289 39.6182 13.3389 41.7571C14.6993 43.9446 16.891 45.8161 19.4353 46.5453C21.4759 47.1286 23.6676 47.1043 25.7585 46.6668C26.3631 46.5453 27.6227 46.1807 28.1013 45.9863C28.5548 45.7918 28.9579 45.6217 28.8319 45.2085C28.7815 45.014 28.3029 44.8925 27.8242 45.0383C27.6227 45.1112 26.9425 45.2814 26.0608 45.4515C24.9775 45.6703 23.6172 45.8647 22.4836 45.8647C22.0301 45.8404 21.5515 45.7918 21.098 45.7432Z" fill="#7F6876"/>
<path d="M7.11632 19.3228C7.34304 18.2047 7.62016 17.0867 8.04842 15.9929C8.45149 14.9478 8.93013 13.927 9.53473 12.9791C9.76146 12.6145 10.0134 12.2499 10.2653 11.9096C10.7187 11.3263 11.1974 10.7672 11.7264 10.2811C13.5654 8.57974 15.7823 7.41308 18.3267 7.0728C20.1909 6.80544 22.1055 6.97558 23.9697 7.21863C24.5239 7.29155 26.3125 7.77766 26.5392 7.34016C26.5644 7.29155 26.5896 7.24294 26.5644 7.19433C26.5644 6.68391 25.2544 6.2464 24.3979 6.02765C19.8886 4.9096 14.9006 5.71168 11.3737 8.82279C9.38358 10.5728 7.89726 12.8089 6.93997 15.2395C6.46133 16.4547 6.08345 17.7429 5.88192 19.0311C5.68038 20.2464 5.45366 21.5832 5.83153 22.7742C5.90711 23.0172 6.2598 23.0172 6.41095 22.8471C6.43614 22.8228 6.43614 22.7985 6.46133 22.7742C6.8644 21.6561 6.8644 20.4652 7.11632 19.3228Z" fill="#7F6876"/>
<path d="M26.2128 15.0937C26.4396 14.5347 26.6663 13.9756 26.5907 13.368C26.5655 13.1736 26.2884 12.9791 26.1121 13.1736C25.4571 13.927 25.2555 15.0208 24.8273 15.9201C24.399 16.7951 23.9204 17.6458 23.215 18.3506C22.5852 18.9826 21.7791 19.4201 20.8722 19.493C19.6378 19.5902 18.6049 19.0312 17.4713 18.6423C17.3201 18.5937 17.1942 18.8124 17.3201 18.9097C19.008 20.4895 21.6783 20.7326 23.4921 19.2986C24.3486 18.618 24.9532 17.6701 25.4571 16.7465C25.7846 16.2361 26.0113 15.6527 26.2128 15.0937Z" fill="#7F6876"/>
<path d="M9.48407 30.4562C9.50841 30.4562 9.50841 30.4307 9.48407 30.4307C9.45974 30.4307 9.45974 30.4562 9.48407 30.4562Z" fill="#7F6876"/>
<path d="M20.4678 27.1978C20.9464 27.4166 21.4251 27.6596 21.8785 27.9756C23.1633 28.8992 23.3145 30.3575 22.9366 31.7916C22.8106 32.2291 23.2137 32.545 23.6419 32.3992C26.0604 31.5971 28.5544 32.8124 30.0155 34.7082C30.6705 35.5832 31.0987 36.677 31.1239 37.7707C31.1239 38.3298 31.0232 38.8645 30.8216 39.3749C30.5949 39.9826 30.1162 40.4686 29.8139 41.052C29.6376 41.3436 29.9147 41.8055 30.2926 41.6353C30.2926 41.6353 30.3178 41.6353 30.3178 41.611C31.5774 40.9305 32.1316 39.2777 32.182 37.9652C32.2324 36.5798 31.6781 35.2673 30.872 34.1249C29.3353 32.0103 26.665 30.8194 24.0702 31.2812C24.2466 30.1388 24.0954 28.9964 23.3397 27.9999C22.5587 26.9791 21.2487 26.42 20.0647 25.9582C18.654 25.3992 17.2432 24.9617 16.3867 23.6492C16.0088 23.0902 15.8325 22.4096 15.8829 21.7534C15.9584 20.927 16.5631 20.3437 17.0669 19.7117C17.218 19.5416 16.9661 19.3471 16.7898 19.42C15.3035 19.9305 14.6737 21.6319 15.0264 23.0173C15.4042 24.4756 16.6386 25.618 18.0242 26.2499C18.2257 26.3471 18.4021 26.4201 18.6036 26.493C19.1326 26.7117 19.6617 26.9062 20.1907 27.1006C20.2914 27.1249 20.367 27.1735 20.4678 27.1978Z" fill="#7F6876"/>
<path d="M32.4341 40.3713C32.2074 40.2012 31.9555 40.4442 31.9806 40.663C32.0562 41.4651 32.3333 42.1942 32.157 42.9963C32.0058 43.6769 31.6028 44.3331 31.1241 44.8679C30.5699 45.4755 30.192 45.8401 29.5119 46.3019C29.4111 46.3748 28.7813 46.8123 28.4538 46.9338C27.5721 47.2984 26.5392 47.6873 25.6827 47.979C23.3399 48.7567 20.7955 49.0241 18.3267 48.6595C15.8075 48.2949 13.5654 47.1526 11.7264 45.4512C10.0386 43.8713 8.85455 41.8297 8.02322 39.7151C7.62015 38.6456 7.31785 37.5276 7.09112 36.3852C6.8644 35.2429 6.8392 34.0276 6.43613 32.9338C6.33537 32.6908 5.90711 32.6422 5.83153 32.9338C5.45366 34.1248 5.68038 35.4616 5.88192 36.6769C6.08345 37.9651 6.48652 39.2533 6.93997 40.4686C7.87207 42.8991 9.35839 45.1352 11.3737 46.8852C15.2533 50.2637 20.7703 50.847 25.6575 49.4616C26.7659 49.1457 27.824 48.7081 28.8569 48.1734C29.3103 47.9547 29.7386 47.6873 30.1416 47.4443C31.0234 46.8852 31.8043 46.229 32.4593 45.4026C33.5425 44.0415 34.0212 41.6595 32.4341 40.3713Z" fill="#7F6876"/>
</svg>
